<svg width="279" height="261" viewBox="0 0 279 261" fill="none" xmlns="http://www.w3.org/2000/svg">
<path d="M1.36505 3.85001C2.02779 3.85001 2.565 3.31275 2.565 2.65001C2.565 1.98727 2.02779 1.45001 1.36505 1.45001C0.70231 1.45001 0.165039 1.98727 0.165039 2.65001C0.165039 3.31275 0.70231 3.85001 1.36505 3.85001Z" fill="white"/>
<path d="M15.1453 3.85001C15.8081 3.85001 16.3453 3.31275 16.3453 2.65001C16.3453 1.98727 15.8081 1.45001 15.1453 1.45001C14.4826 1.45001 13.9453 1.98727 13.9453 2.65001C13.9453 3.31275 14.4826 3.85001 15.1453 3.85001Z" fill="white"/>
<path d="M30.1251 2.65001C30.1251 3.31001 29.5851 3.85001 28.9251 3.85001C28.2651 3.85001 27.7251 3.31001 27.7251 2.65001C27.7251 1.99001 28.2651 1.45001 28.9251 1.45001C29.5851 1.45001 30.1251 1.99001 30.1251 2.65001Z" fill="white"/>
<path d="M42.7049 3.85001C43.3676 3.85001 43.9049 3.31275 43.9049 2.65001C43.9049 1.98727 43.3676 1.45001 42.7049 1.45001C42.0422 1.45001 41.5049 1.98727 41.5049 2.65001C41.5049 3.31275 42.0422 3.85001 42.7049 3.85001Z" fill="white"/>
<path d="M56.4852 3.85001C57.1479 3.85001 57.6852 3.31275 57.6852 2.65001C57.6852 1.98727 57.1479 1.45001 56.4852 1.45001C55.8224 1.45001 55.2852 1.98727 55.2852 2.65001C55.2852 3.31275 55.8224 3.85001 56.4852 3.85001Z" fill="white"/>
<path d="M70.265 3.85001C70.9277 3.85001 71.465 3.31275 71.465 2.65001C71.465 1.98727 70.9277 1.45001 70.265 1.45001C69.6022 1.45001 69.0649 1.98727 69.0649 2.65001C69.0649 3.31275 69.6022 3.85001 70.265 3.85001Z" fill="white"/>
<path d="M84.055 3.85001C84.7177 3.85001 85.2549 3.31275 85.2549 2.65001C85.2549 1.98727 84.7177 1.45001 84.055 1.45001C83.3923 1.45001 82.855 1.98727 82.855 2.65001C82.855 3.31275 83.3923 3.85001 84.055 3.85001Z" fill="white"/>
<path d="M97.8353 3.85001C98.498 3.85001 99.0353 3.31275 99.0353 2.65001C99.0353 1.98727 98.498 1.45001 97.8353 1.45001C97.1725 1.45001 96.6353 1.98727 96.6353 2.65001C96.6353 3.31275 97.1725 3.85001 97.8353 3.85001Z" fill="white"/>
<path d="M111.615 3.85001C112.278 3.85001 112.815 3.31275 112.815 2.65001C112.815 1.98727 112.278 1.45001 111.615 1.45001C110.952 1.45001 110.415 1.98727 110.415 2.65001C110.415 3.31275 110.952 3.85001 111.615 3.85001Z" fill="white"/>
<path d="M126.595 2.65001C126.595 3.31001 126.055 3.85001 125.395 3.85001C124.735 3.85001 124.195 3.31001 124.195 2.65001C124.195 1.99001 124.735 1.45001 125.395 1.45001C126.055 1.45001 126.595 1.99001 126.595 2.65001Z" fill="white"/>
<path d="M139.175 3.85001C139.838 3.85001 140.375 3.31275 140.375 2.65001C140.375 1.98727 139.838 1.45001 139.175 1.45001C138.512 1.45001 137.975 1.98727 137.975 2.65001C137.975 3.31275 138.512 3.85001 139.175 3.85001Z" fill="white"/>
<path d="M152.955 3.85001C153.618 3.85001 154.155 3.31275 154.155 2.65001C154.155 1.98727 153.618 1.45001 152.955 1.45001C152.292 1.45001 151.755 1.98727 151.755 2.65001C151.755 3.31275 152.292 3.85001 152.955 3.85001Z" fill="white"/>
<path d="M166.745 3.85001C167.408 3.85001 167.945 3.31275 167.945 2.65001C167.945 1.98727 167.408 1.45001 166.745 1.45001C166.082 1.45001 165.545 1.98727 165.545 2.65001C165.545 3.31275 166.082 3.85001 166.745 3.85001Z" fill="white"/>
<path d="M180.525 3.85001C181.188 3.85001 181.725 3.31275 181.725 2.65001C181.725 1.98727 181.188 1.45001 180.525 1.45001C179.862 1.45001 179.325 1.98727 179.325 2.65001C179.325 3.31275 179.862 3.85001 180.525 3.85001Z" fill="white"/>
<path d="M194.305 3.85001C194.968 3.85001 195.505 3.31275 195.505 2.65001C195.505 1.98727 194.968 1.45001 194.305 1.45001C193.642 1.45001 193.105 1.98727 193.105 2.65001C193.105 3.31275 193.642 3.85001 194.305 3.85001Z" fill="white"/>
<path d="M208.085 3.85001C208.748 3.85001 209.285 3.31275 209.285 2.65001C209.285 1.98727 208.748 1.45001 208.085 1.45001C207.423 1.45001 206.885 1.98727 206.885 2.65001C206.885 3.31275 207.423 3.85001 208.085 3.85001Z" fill="white"/>
<path d="M221.865 3.85001C222.528 3.85001 223.065 3.31275 223.065 2.65001C223.065 1.98727 222.528 1.45001 221.865 1.45001C221.202 1.45001 220.665 1.98727 220.665 2.65001C220.665 3.31275 221.202 3.85001 221.865 3.85001Z" fill="white"/>
<path d="M235.645 3.85001C236.308 3.85001 236.845 3.31275 236.845 2.65001C236.845 1.98727 236.308 1.45001 235.645 1.45001C234.983 1.45001 234.445 1.98727 234.445 2.65001C234.445 3.31275 234.983 3.85001 235.645 3.85001Z" fill="white"/>
<path d="M250.625 2.65001C250.625 3.31001 250.085 3.85001 249.425 3.85001C248.765 3.85001 248.225 3.31001 248.225 2.65001C248.225 1.99001 248.765 1.45001 249.425 1.45001C250.095 1.45001 250.625 1.99001 250.625 2.65001Z" fill="white"/>
<path d="M263.215 3.85001C263.878 3.85001 264.415 3.31275 264.415 2.65001C264.415 1.98727 263.878 1.45001 263.215 1.45001C262.552 1.45001 262.015 1.98727 262.015 2.65001C262.015 3.31275 262.552 3.85001 263.215 3.85001Z" fill="white"/>
<path d="M276.995 3.85001C277.658 3.85001 278.195 3.31275 278.195 2.65001C278.195 1.98727 277.658 1.45001 276.995 1.45001C276.332 1.45001 275.795 1.98727 275.795 2.65001C275.795 3.31275 276.332 3.85001 276.995 3.85001Z" fill="white"/>
<path d="M1.36505 17.33C2.02779 17.33 2.565 16.7927 2.565 16.13C2.565 15.4672 2.02779 14.93 1.36505 14.93C0.70231 14.93 0.165039 15.4672 0.165039 16.13C0.165039 16.7927 0.70231 17.33 1.36505 17.33Z" fill="white"/>
<path d="M15.1453 17.33C15.8081 17.33 16.3453 16.7927 16.3453 16.13C16.3453 15.4672 15.8081 14.93 15.1453 14.93C14.4826 14.93 13.9453 15.4672 13.9453 16.13C13.9453 16.7927 14.4826 17.33 15.1453 17.33Z" fill="white"/>
<path d="M30.1251 16.13C30.1251 16.79 29.5851 17.33 28.9251 17.33C28.2651 17.33 27.7251 16.79 27.7251 16.13C27.7251 15.47 28.2651 14.93 28.9251 14.93C29.5851 14.93 30.1251 15.47 30.1251 16.13Z" fill="white"/>
<path d="M42.7049 17.33C43.3676 17.33 43.9049 16.7927 43.9049 16.13C43.9049 15.4672 43.3676 14.93 42.7049 14.93C42.0422 14.93 41.5049 15.4672 41.5049 16.13C41.5049 16.7927 42.0422 17.33 42.7049 17.33Z" fill="white"/>
<path d="M56.4852 17.33C57.1479 17.33 57.6852 16.7927 57.6852 16.13C57.6852 15.4672 57.1479 14.93 56.4852 14.93C55.8224 14.93 55.2852 15.4672 55.2852 16.13C55.2852 16.7927 55.8224 17.33 56.4852 17.33Z" fill="white"/>
<path d="M70.265 17.33C70.9277 17.33 71.465 16.7927 71.465 16.13C71.465 15.4672 70.9277 14.93 70.265 14.93C69.6022 14.93 69.0649 15.4672 69.0649 16.13C69.0649 16.7927 69.6022 17.33 70.265 17.33Z" fill="white"/>
<path d="M84.055 17.33C84.7177 17.33 85.2549 16.7927 85.2549 16.13C85.2549 15.4672 84.7177 14.93 84.055 14.93C83.3923 14.93 82.855 15.4672 82.855 16.13C82.855 16.7927 83.3923 17.33 84.055 17.33Z" fill="white"/>
<path d="M97.8353 17.33C98.498 17.33 99.0353 16.7927 99.0353 16.13C99.0353 15.4672 98.498 14.93 97.8353 14.93C97.1725 14.93 96.6353 15.4672 96.6353 16.13C96.6353 16.7927 97.1725 17.33 97.8353 17.33Z" fill="white"/>
<path d="M111.615 17.33C112.278 17.33 112.815 16.7927 112.815 16.13C112.815 15.4672 112.278 14.93 111.615 14.93C110.952 14.93 110.415 15.4672 110.415 16.13C110.415 16.7927 110.952 17.33 111.615 17.33Z" fill="white"/>
<path d="M126.595 16.13C126.595 16.79 126.055 17.33 125.395 17.33C124.735 17.33 124.195 16.79 124.195 16.13C124.195 15.47 124.735 14.93 125.395 14.93C126.055 14.93 126.595 15.47 126.595 16.13Z" fill="white"/>
<path d="M139.175 17.33C139.838 17.33 140.375 16.7927 140.375 16.13C140.375 15.4672 139.838 14.93 139.175 14.93C138.512 14.93 137.975 15.4672 137.975 16.13C137.975 16.7927 138.512 17.33 139.175 17.33Z" fill="white"/>
<path d="M152.955 17.33C153.618 17.33 154.155 16.7927 154.155 16.13C154.155 15.4672 153.618 14.93 152.955 14.93C152.292 14.93 151.755 15.4672 151.755 16.13C151.755 16.7927 152.292 17.33 152.955 17.33Z" fill="white"/>
<path d="M166.745 17.33C167.408 17.33 167.945 16.7927 167.945 16.13C167.945 15.4672 167.408 14.93 166.745 14.93C166.082 14.93 165.545 15.4672 165.545 16.13C165.545 16.7927 166.082 17.33 166.745 17.33Z" fill="white"/>
<path d="M180.525 17.33C181.188 17.33 181.725 16.7927 181.725 16.13C181.725 15.4672 181.188 14.93 180.525 14.93C179.862 14.93 179.325 15.4672 179.325 16.13C179.325 16.7927 179.862 17.33 180.525 17.33Z" fill="white"/>
<path d="M194.305 17.33C194.968 17.33 195.505 16.7927 195.505 16.13C195.505 15.4672 194.968 14.93 194.305 14.93C193.642 14.93 193.105 15.4672 193.105 16.13C193.105 16.7927 193.642 17.33 194.305 17.33Z" fill="white"/>
<path d="M208.085 17.33C208.748 17.33 209.285 16.7927 209.285 16.13C209.285 15.4672 208.748 14.93 208.085 14.93C207.423 14.93 206.885 15.4672 206.885 16.13C206.885 16.7927 207.423 17.33 208.085 17.33Z" fill="white"/>
<path d="M221.865 17.33C222.528 17.33 223.065 16.7927 223.065 16.13C223.065 15.4672 222.528 14.93 221.865 14.93C221.202 14.93 220.665 15.4672 220.665 16.13C220.665 16.7927 221.202 17.33 221.865 17.33Z" fill="white"/>
<path d="M235.645 17.33C236.308 17.33 236.845 16.7927 236.845 16.13C236.845 15.4672 236.308 14.93 235.645 14.93C234.983 14.93 234.445 15.4672 234.445 16.13C234.445 16.7927 234.983 17.33 235.645 17.33Z" fill="white"/>
<path d="M250.625 16.13C250.625 16.79 250.085 17.33 249.425 17.33C248.765 17.33 248.225 16.79 248.225 16.13C248.225 15.47 248.765 14.93 249.425 14.93C250.095 14.93 250.625 15.47 250.625 16.13Z" fill="white"/>
<path d="M263.215 17.33C263.878 17.33 264.415 16.7927 264.415 16.13C264.415 15.4672 263.878 14.93 263.215 14.93C262.552 14.93 262.015 15.4672 262.015 16.13C262.015 16.7927 262.552 17.33 263.215 17.33Z" fill="white"/>
<path d="M276.995 17.33C277.658 17.33 278.195 16.7927 278.195 16.13C278.195 15.4672 277.658 14.93 276.995 14.93C276.332 14.93 275.795 15.4672 275.795 16.13C275.795 16.7927 276.332 17.33 276.995 17.33Z" fill="white"/>
<path d="M1.36505 30.81C2.02779 30.81 2.565 30.2727 2.565 29.61C2.565 28.9473 2.02779 28.41 1.36505 28.41C0.70231 28.41 0.165039 28.9473 0.165039 29.61C0.165039 30.2727 0.70231 30.81 1.36505 30.81Z" fill="white"/>
<path d="M15.1453 30.81C15.8081 30.81 16.3453 30.2727 16.3453 29.61C16.3453 28.9473 15.8081 28.41 15.1453 28.41C14.4826 28.41 13.9453 28.9473 13.9453 29.61C13.9453 30.2727 14.4826 30.81 15.1453 30.81Z" fill="white"/>
<path d="M30.1251 29.61C30.1251 30.27 29.5851 30.81 28.9251 30.81C28.2651 30.81 27.7251 30.27 27.7251 29.61C27.7251 28.95 28.2651 28.41 28.9251 28.41C29.5851 28.41 30.1251 28.95 30.1251 29.61Z" fill="white"/>
<path d="M42.7049 30.81C43.3676 30.81 43.9049 30.2727 43.9049 29.61C43.9049 28.9473 43.3676 28.41 42.7049 28.41C42.0422 28.41 41.5049 28.9473 41.5049 29.61C41.5049 30.2727 42.0422 30.81 42.7049 30.81Z" fill="white"/>
<path d="M56.4852 30.81C57.1479 30.81 57.6852 30.2727 57.6852 29.61C57.6852 28.9473 57.1479 28.41 56.4852 28.41C55.8224 28.41 55.2852 28.9473 55.2852 29.61C55.2852 30.2727 55.8224 30.81 56.4852 30.81Z" fill="white"/>
<path d="M70.265 30.81C70.9277 30.81 71.465 30.2727 71.465 29.61C71.465 28.9473 70.9277 28.41 70.265 28.41C69.6022 28.41 69.0649 28.9473 69.0649 29.61C69.0649 30.2727 69.6022 30.81 70.265 30.81Z" fill="white"/>
<path d="M84.055 30.81C84.7177 30.81 85.2549 30.2727 85.2549 29.61C85.2549 28.9473 84.7177 28.41 84.055 28.41C83.3923 28.41 82.855 28.9473 82.855 29.61C82.855 30.2727 83.3923 30.81 84.055 30.81Z" fill="white"/>
<path d="M97.8353 30.81C98.498 30.81 99.0353 30.2727 99.0353 29.61C99.0353 28.9473 98.498 28.41 97.8353 28.41C97.1725 28.41 96.6353 28.9473 96.6353 29.61C96.6353 30.2727 97.1725 30.81 97.8353 30.81Z" fill="white"/>
<path d="M111.615 30.81C112.278 30.81 112.815 30.2727 112.815 29.61C112.815 28.9473 112.278 28.41 111.615 28.41C110.952 28.41 110.415 28.9473 110.415 29.61C110.415 30.2727 110.952 30.81 111.615 30.81Z" fill="white"/>
<path d="M126.595 29.61C126.595 30.27 126.055 30.81 125.395 30.81C124.735 30.81 124.195 30.27 124.195 29.61C124.195 28.95 124.735 28.41 125.395 28.41C126.055 28.41 126.595 28.95 126.595 29.61Z" fill="white"/>
<path d="M139.175 30.81C139.838 30.81 140.375 30.2727 140.375 29.61C140.375 28.9473 139.838 28.41 139.175 28.41C138.512 28.41 137.975 28.9473 137.975 29.61C137.975 30.2727 138.512 30.81 139.175 30.81Z" fill="white"/>
<path d="M152.955 30.81C153.618 30.81 154.155 30.2727 154.155 29.61C154.155 28.9473 153.618 28.41 152.955 28.41C152.292 28.41 151.755 28.9473 151.755 29.61C151.755 30.2727 152.292 30.81 152.955 30.81Z" fill="white"/>
<path d="M166.745 30.81C167.408 30.81 167.945 30.2727 167.945 29.61C167.945 28.9473 167.408 28.41 166.745 28.41C166.082 28.41 165.545 28.9473 165.545 29.61C165.545 30.2727 166.082 30.81 166.745 30.81Z" fill="white"/>
<path d="M180.525 30.81C181.188 30.81 181.725 30.2727 181.725 29.61C181.725 28.9473 181.188 28.41 180.525 28.41C179.862 28.41 179.325 28.9473 179.325 29.61C179.325 30.2727 179.862 30.81 180.525 30.81Z" fill="white"/>
<path d="M194.305 30.81C194.968 30.81 195.505 30.2727 195.505 29.61C195.505 28.9473 194.968 28.41 194.305 28.41C193.642 28.41 193.105 28.9473 193.105 29.61C193.105 30.2727 193.642 30.81 194.305 30.81Z" fill="white"/>
<path d="M208.085 30.81C208.748 30.81 209.285 30.2727 209.285 29.61C209.285 28.9473 208.748 28.41 208.085 28.41C207.423 28.41 206.885 28.9473 206.885 29.61C206.885 30.2727 207.423 30.81 208.085 30.81Z" fill="white"/>
<path d="M221.865 30.81C222.528 30.81 223.065 30.2727 223.065 29.61C223.065 28.9473 222.528 28.41 221.865 28.41C221.202 28.41 220.665 28.9473 220.665 29.61C220.665 30.2727 221.202 30.81 221.865 30.81Z" fill="white"/>
<path d="M235.645 30.81C236.308 30.81 236.845 30.2727 236.845 29.61C236.845 28.9473 236.308 28.41 235.645 28.41C234.983 28.41 234.445 28.9473 234.445 29.61C234.445 30.2727 234.983 30.81 235.645 30.81Z" fill="white"/>
<path d="M250.625 29.61C250.625 30.27 250.085 30.81 249.425 30.81C248.765 30.81 248.225 30.27 248.225 29.61C248.225 28.95 248.765 28.41 249.425 28.41C250.095 28.41 250.625 28.95 250.625 29.61Z" fill="white"/>
<path d="M263.215 30.81C263.878 30.81 264.415 30.2727 264.415 29.61C264.415 28.9473 263.878 28.41 263.215 28.41C262.552 28.41 262.015 28.9473 262.015 29.61C262.015 30.2727 262.552 30.81 263.215 30.81Z" fill="white"/>
<path d="M276.995 30.81C277.658 30.81 278.195 30.2727 278.195 29.61C278.195 28.9473 277.658 28.41 276.995 28.41C276.332 28.41 275.795 28.9473 275.795 29.61C275.795 30.2727 276.332 30.81 276.995 30.81Z" fill="white"/>
<path d="M1.36505 44.29C2.02779 44.29 2.565 43.7528 2.565 43.09C2.565 42.4273 2.02779 41.89 1.36505 41.89C0.70231 41.89 0.165039 42.4273 0.165039 43.09C0.165039 43.7528 0.70231 44.29 1.36505 44.29Z" fill="white"/>
<path d="M15.1453 44.29C15.8081 44.29 16.3453 43.7528 16.3453 43.09C16.3453 42.4273 15.8081 41.89 15.1453 41.89C14.4826 41.89 13.9453 42.4273 13.9453 43.09C13.9453 43.7528 14.4826 44.29 15.1453 44.29Z" fill="white"/>
<path d="M30.1251 43.09C30.1251 43.75 29.5851 44.29 28.9251 44.29C28.2651 44.29 27.7251 43.75 27.7251 43.09C27.7251 42.43 28.2651 41.89 28.9251 41.89C29.5851 41.9 30.1251 42.43 30.1251 43.09Z" fill="white"/>
<path d="M42.7049 44.29C43.3676 44.29 43.9049 43.7528 43.9049 43.09C43.9049 42.4273 43.3676 41.89 42.7049 41.89C42.0422 41.89 41.5049 42.4273 41.5049 43.09C41.5049 43.7528 42.0422 44.29 42.7049 44.29Z" fill="white"/>
<path d="M56.4852 44.29C57.1479 44.29 57.6852 43.7528 57.6852 43.09C57.6852 42.4273 57.1479 41.89 56.4852 41.89C55.8224 41.89 55.2852 42.4273 55.2852 43.09C55.2852 43.7528 55.8224 44.29 56.4852 44.29Z" fill="white"/>
<path d="M70.265 44.29C70.9277 44.29 71.465 43.7528 71.465 43.09C71.465 42.4273 70.9277 41.89 70.265 41.89C69.6022 41.89 69.0649 42.4273 69.0649 43.09C69.0649 43.7528 69.6022 44.29 70.265 44.29Z" fill="white"/>
<path d="M84.055 44.29C84.7177 44.29 85.2549 43.7528 85.2549 43.09C85.2549 42.4273 84.7177 41.89 84.055 41.89C83.3923 41.89 82.855 42.4273 82.855 43.09C82.855 43.7528 83.3923 44.29 84.055 44.29Z" fill="white"/>
<path d="M97.8353 44.29C98.498 44.29 99.0353 43.7528 99.0353 43.09C99.0353 42.4273 98.498 41.89 97.8353 41.89C97.1725 41.89 96.6353 42.4273 96.6353 43.09C96.6353 43.7528 97.1725 44.29 97.8353 44.29Z" fill="white"/>
<path d="M111.615 44.29C112.278 44.29 112.815 43.7528 112.815 43.09C112.815 42.4273 112.278 41.89 111.615 41.89C110.952 41.89 110.415 42.4273 110.415 43.09C110.415 43.7528 110.952 44.29 111.615 44.29Z" fill="white"/>
<path d="M126.595 43.09C126.595 43.75 126.055 44.29 125.395 44.29C124.735 44.29 124.195 43.75 124.195 43.09C124.195 42.43 124.735 41.89 125.395 41.89C126.055 41.9 126.595 42.43 126.595 43.09Z" fill="white"/>
<path d="M139.175 44.29C139.838 44.29 140.375 43.7528 140.375 43.09C140.375 42.4273 139.838 41.89 139.175 41.89C138.512 41.89 137.975 42.4273 137.975 43.09C137.975 43.7528 138.512 44.29 139.175 44.29Z" fill="white"/>
<path d="M152.955 44.29C153.618 44.29 154.155 43.7528 154.155 43.09C154.155 42.4273 153.618 41.89 152.955 41.89C152.292 41.89 151.755 42.4273 151.755 43.09C151.755 43.7528 152.292 44.29 152.955 44.29Z" fill="white"/>
<path d="M166.745 44.29C167.408 44.29 167.945 43.7528 167.945 43.09C167.945 42.4273 167.408 41.89 166.745 41.89C166.082 41.89 165.545 42.4273 165.545 43.09C165.545 43.7528 166.082 44.29 166.745 44.29Z" fill="white"/>
<path d="M180.525 44.29C181.188 44.29 181.725 43.7528 181.725 43.09C181.725 42.4273 181.188 41.89 180.525 41.89C179.862 41.89 179.325 42.4273 179.325 43.09C179.325 43.7528 179.862 44.29 180.525 44.29Z" fill="white"/>
<path d="M194.305 44.29C194.968 44.29 195.505 43.7528 195.505 43.09C195.505 42.4273 194.968 41.89 194.305 41.89C193.642 41.89 193.105 42.4273 193.105 43.09C193.105 43.7528 193.642 44.29 194.305 44.29Z" fill="white"/>
<path d="M208.085 44.29C208.748 44.29 209.285 43.7528 209.285 43.09C209.285 42.4273 208.748 41.89 208.085 41.89C207.423 41.89 206.885 42.4273 206.885 43.09C206.885 43.7528 207.423 44.29 208.085 44.29Z" fill="white"/>
<path d="M221.865 44.29C222.528 44.29 223.065 43.7528 223.065 43.09C223.065 42.4273 222.528 41.89 221.865 41.89C221.202 41.89 220.665 42.4273 220.665 43.09C220.665 43.7528 221.202 44.29 221.865 44.29Z" fill="white"/>
<path d="M235.645 44.29C236.308 44.29 236.845 43.7528 236.845 43.09C236.845 42.4273 236.308 41.89 235.645 41.89C234.983 41.89 234.445 42.4273 234.445 43.09C234.445 43.7528 234.983 44.29 235.645 44.29Z" fill="white"/>
<path d="M250.625 43.09C250.625 43.75 250.085 44.29 249.425 44.29C248.765 44.29 248.225 43.75 248.225 43.09C248.225 42.43 248.765 41.89 249.425 41.89C250.095 41.9 250.625 42.43 250.625 43.09Z" fill="white"/>
<path d="M263.215 44.29C263.878 44.29 264.415 43.7528 264.415 43.09C264.415 42.4273 263.878 41.89 263.215 41.89C262.552 41.89 262.015 42.4273 262.015 43.09C262.015 43.7528 262.552 44.29 263.215 44.29Z" fill="white"/>
<path d="M276.995 44.29C277.658 44.29 278.195 43.7528 278.195 43.09C278.195 42.4273 277.658 41.89 276.995 41.89C276.332 41.89 275.795 42.4273 275.795 43.09C275.795 43.7528 276.332 44.29 276.995 44.29Z" fill="white"/>
<path d="M1.36505 57.78C2.02779 57.78 2.565 57.2428 2.565 56.58C2.565 55.9173 2.02779 55.38 1.36505 55.38C0.70231 55.38 0.165039 55.9173 0.165039 56.58C0.165039 57.2428 0.70231 57.78 1.36505 57.78Z" fill="white"/>
<path d="M15.1453 57.78C15.8081 57.78 16.3453 57.2428 16.3453 56.58C16.3453 55.9173 15.8081 55.38 15.1453 55.38C14.4826 55.38 13.9453 55.9173 13.9453 56.58C13.9453 57.2428 14.4826 57.78 15.1453 57.78Z" fill="white"/>
<path d="M30.1251 56.58C30.1251 57.24 29.5851 57.78 28.9251 57.78C28.2651 57.78 27.7251 57.24 27.7251 56.58C27.7251 55.92 28.2651 55.38 28.9251 55.38C29.5851 55.38 30.1251 55.91 30.1251 56.58Z" fill="white"/>
<path d="M42.7049 57.78C43.3676 57.78 43.9049 57.2428 43.9049 56.58C43.9049 55.9173 43.3676 55.38 42.7049 55.38C42.0422 55.38 41.5049 55.9173 41.5049 56.58C41.5049 57.2428 42.0422 57.78 42.7049 57.78Z" fill="white"/>
<path d="M56.4852 57.78C57.1479 57.78 57.6852 57.2428 57.6852 56.58C57.6852 55.9173 57.1479 55.38 56.4852 55.38C55.8224 55.38 55.2852 55.9173 55.2852 56.58C55.2852 57.2428 55.8224 57.78 56.4852 57.78Z" fill="white"/>
<path d="M70.265 57.78C70.9277 57.78 71.465 57.2428 71.465 56.58C71.465 55.9173 70.9277 55.38 70.265 55.38C69.6022 55.38 69.0649 55.9173 69.0649 56.58C69.0649 57.2428 69.6022 57.78 70.265 57.78Z" fill="white"/>
<path d="M84.055 57.78C84.7177 57.78 85.2549 57.2428 85.2549 56.58C85.2549 55.9173 84.7177 55.38 84.055 55.38C83.3923 55.38 82.855 55.9173 82.855 56.58C82.855 57.2428 83.3923 57.78 84.055 57.78Z" fill="white"/>
<path d="M97.8353 57.78C98.498 57.78 99.0353 57.2428 99.0353 56.58C99.0353 55.9173 98.498 55.38 97.8353 55.38C97.1725 55.38 96.6353 55.9173 96.6353 56.58C96.6353 57.2428 97.1725 57.78 97.8353 57.78Z" fill="white"/>
<path d="M112.825 56.758C112.926 56.103 112.477 55.4901 111.822 55.389C111.167 55.2879 110.554 55.7368 110.453 56.3918C110.352 57.0468 110.801 57.6597 111.456 57.7609C112.11 57.862 112.723 57.413 112.825 56.758Z" fill="white"/>
<path d="M126.595 56.58C126.595 57.24 126.055 57.78 125.395 57.78C124.735 57.78 124.195 57.24 124.195 56.58C124.195 55.92 124.735 55.38 125.395 55.38C126.055 55.38 126.595 55.91 126.595 56.58Z" fill="white"/>
<path d="M139.175 57.78C139.838 57.78 140.375 57.2428 140.375 56.58C140.375 55.9173 139.838 55.38 139.175 55.38C138.512 55.38 137.975 55.9173 137.975 56.58C137.975 57.2428 138.512 57.78 139.175 57.78Z" fill="white"/>
<path d="M152.955 57.78C153.618 57.78 154.155 57.2428 154.155 56.58C154.155 55.9173 153.618 55.38 152.955 55.38C152.292 55.38 151.755 55.9173 151.755 56.58C151.755 57.2428 152.292 57.78 152.955 57.78Z" fill="white"/>
<path d="M166.745 57.78C167.408 57.78 167.945 57.2428 167.945 56.58C167.945 55.9173 167.408 55.38 166.745 55.38C166.082 55.38 165.545 55.9173 165.545 56.58C165.545 57.2428 166.082 57.78 166.745 57.78Z" fill="white"/>
<path d="M180.525 57.78C181.188 57.78 181.725 57.2428 181.725 56.58C181.725 55.9173 181.188 55.38 180.525 55.38C179.862 55.38 179.325 55.9173 179.325 56.58C179.325 57.2428 179.862 57.78 180.525 57.78Z" fill="white"/>
<path d="M194.305 57.78C194.968 57.78 195.505 57.2428 195.505 56.58C195.505 55.9173 194.968 55.38 194.305 55.38C193.642 55.38 193.105 55.9173 193.105 56.58C193.105 57.2428 193.642 57.78 194.305 57.78Z" fill="white"/>
<path d="M209.281 56.7336C209.364 56.0761 208.898 55.4757 208.241 55.3926C207.583 55.3095 206.983 55.7751 206.9 56.4326C206.816 57.0901 207.282 57.6905 207.94 57.7737C208.597 57.8568 209.197 57.3911 209.281 56.7336Z" fill="white"/>
<path d="M221.865 57.78C222.528 57.78 223.065 57.2428 223.065 56.58C223.065 55.9173 222.528 55.38 221.865 55.38C221.202 55.38 220.665 55.9173 220.665 56.58C220.665 57.2428 221.202 57.78 221.865 57.78Z" fill="white"/>
<path d="M235.645 57.78C236.308 57.78 236.845 57.2428 236.845 56.58C236.845 55.9173 236.308 55.38 235.645 55.38C234.983 55.38 234.445 55.9173 234.445 56.58C234.445 57.2428 234.983 57.78 235.645 57.78Z" fill="white"/>
<path d="M250.625 56.58C250.625 57.24 250.085 57.78 249.425 57.78C248.765 57.78 248.225 57.24 248.225 56.58C248.225 55.92 248.765 55.38 249.425 55.38C250.095 55.38 250.625 55.91 250.625 56.58Z" fill="white"/>
<path d="M263.215 57.78C263.878 57.78 264.415 57.2428 264.415 56.58C264.415 55.9173 263.878 55.38 263.215 55.38C262.552 55.38 262.015 55.9173 262.015 56.58C262.015 57.2428 262.552 57.78 263.215 57.78Z" fill="white"/>
<path d="M276.995 57.78C277.658 57.78 278.195 57.2428 278.195 56.58C278.195 55.9173 277.658 55.38 276.995 55.38C276.332 55.38 275.795 55.9173 275.795 56.58C275.795 57.2428 276.332 57.78 276.995 57.78Z" fill="white"/>
<path d="M2.56176 70.2456C2.66832 69.5915 2.22444 68.9749 1.57031 68.8683C0.916185 68.7617 0.299531 69.2056 0.192962 69.8597C0.0863931 70.5138 0.530271 71.1305 1.1844 71.2371C1.83852 71.3436 2.45519 70.8997 2.56176 70.2456Z" fill="white"/>
<path d="M16.3435 70.2471C16.4501 69.5929 16.0062 68.9763 15.3521 68.8697C14.6979 68.7631 14.0813 69.207 13.9747 69.8612C13.8681 70.5153 14.312 71.132 14.9661 71.2385C15.6203 71.3451 16.2369 70.9012 16.3435 70.2471Z" fill="white"/>
<path d="M30.1251 70.06C30.1251 70.72 29.5851 71.26 28.9251 71.26C28.2651 71.26 27.7251 70.72 27.7251 70.06C27.7251 69.4 28.2651 68.86 28.9251 68.86C29.5851 68.86 30.1251 69.4 30.1251 70.06Z" fill="white"/>
<path d="M43.8853 70.1864C43.9625 69.5281 43.4915 68.9319 42.8333 68.8547C42.175 68.7775 41.5788 69.2485 41.5016 69.9068C41.4244 70.565 41.8954 71.1612 42.5537 71.2384C43.2119 71.3156 43.8081 70.8446 43.8853 70.1864Z" fill="white"/>
<path d="M57.6882 70.2512C57.7948 69.597 57.3509 68.9804 56.6968 68.8738C56.0427 68.7672 55.426 69.2111 55.3194 69.8653C55.2129 70.5194 55.6567 71.1361 56.3109 71.2426C56.965 71.3492 57.5817 70.9053 57.6882 70.2512Z" fill="white"/>
<path d="M71.4695 70.2526C71.576 69.5985 71.1322 68.9818 70.478 68.8753C69.8239 68.7687 69.2072 69.2126 69.1007 69.8667C68.9941 70.5208 69.438 71.1375 70.0921 71.2441C70.7462 71.3507 71.3629 70.9068 71.4695 70.2526Z" fill="white"/>
<path d="M85.2527 70.2442C85.3592 69.59 84.9154 68.9734 84.2612 68.8669C83.6071 68.7603 82.9904 69.2041 82.8839 69.8583C82.7773 70.5124 83.2212 71.1291 83.8753 71.2356C84.5294 71.3422 85.1461 70.8983 85.2527 70.2442Z" fill="white"/>
<path d="M99.0344 70.2455C99.141 69.5914 98.6971 68.9747 98.043 68.8682C97.3889 68.7616 96.7722 69.2055 96.6656 69.8596C96.559 70.5138 97.0029 71.1304 97.6571 71.237C98.3112 71.3436 98.9278 70.8997 99.0344 70.2455Z" fill="white"/>
<path d="M111.615 71.26C112.278 71.26 112.815 70.7227 112.815 70.06C112.815 69.3973 112.278 68.86 111.615 68.86C110.952 68.86 110.415 69.3973 110.415 70.06C110.415 70.7227 110.952 71.26 111.615 71.26Z" fill="white"/>
<path d="M126.595 70.06C126.595 70.72 126.055 71.26 125.395 71.26C124.735 71.26 124.195 70.72 124.195 70.06C124.195 69.4 124.735 68.86 125.395 68.86C126.055 68.86 126.595 69.4 126.595 70.06Z" fill="white"/>
<path d="M140.379 70.2496C140.486 69.5955 140.042 68.9789 139.388 68.8723C138.734 68.7658 138.117 69.2096 138.01 69.8637C137.904 70.5178 138.348 71.1345 139.002 71.2411C139.656 71.3477 140.273 70.9038 140.379 70.2496Z" fill="white"/>
<path d="M154.16 70.2511C154.267 69.597 153.823 68.9803 153.169 68.8737C152.515 68.7672 151.898 69.2111 151.792 69.8652C151.685 70.5193 152.129 71.136 152.783 71.2426C153.437 71.3491 154.054 70.9052 154.16 70.2511Z" fill="white"/>
<path d="M167.944 70.2426C168.05 69.5885 167.606 68.9719 166.952 68.8653C166.298 68.7588 165.681 69.2026 165.575 69.8567C165.468 70.5109 165.912 71.1275 166.566 71.2341C167.22 71.3407 167.837 70.8968 167.944 70.2426Z" fill="white"/>
<path d="M181.725 70.244C181.832 69.5899 181.388 68.9732 180.734 68.8666C180.08 68.7601 179.463 69.204 179.357 69.8581C179.25 70.5122 179.694 71.1289 180.348 71.2355C181.002 71.342 181.619 70.8981 181.725 70.244Z" fill="white"/>
<path d="M195.507 70.2454C195.613 69.5913 195.169 68.9747 194.515 68.8681C193.861 68.7615 193.244 69.2054 193.138 69.8595C193.031 70.5136 193.475 71.1303 194.129 71.2369C194.783 71.3434 195.4 70.8995 195.507 70.2454Z" fill="white"/>
<path d="M208.085 71.26C208.748 71.26 209.285 70.7227 209.285 70.06C209.285 69.3973 208.748 68.86 208.085 68.86C207.423 68.86 206.885 69.3973 206.885 70.06C206.885 70.7227 207.423 71.26 208.085 71.26Z" fill="white"/>
<path d="M223.07 70.2482C223.176 69.5941 222.732 68.9775 222.078 68.8709C221.424 68.7643 220.807 69.2082 220.701 69.8623C220.594 70.5164 221.038 71.1331 221.692 71.2397C222.346 71.3462 222.963 70.9023 223.07 70.2482Z" fill="white"/>
<path d="M236.851 70.2497C236.958 69.5956 236.514 68.9789 235.86 68.8723C235.206 68.7657 234.589 69.2096 234.483 69.8638C234.376 70.5179 234.82 71.1346 235.474 71.2411C236.128 71.3477 236.745 70.9038 236.851 70.2497Z" fill="white"/>
<path d="M250.625 70.06C250.625 70.72 250.085 71.26 249.425 71.26C248.765 71.26 248.225 70.72 248.225 70.06C248.225 69.4 248.765 68.86 249.425 68.86C250.095 68.86 250.625 69.4 250.625 70.06Z" fill="white"/>
<path d="M264.442 70.229C264.511 69.5699 264.032 68.9799 263.373 68.9114C262.714 68.8429 262.124 69.3217 262.055 69.9809C261.987 70.64 262.466 71.2299 263.125 71.2985C263.784 71.367 264.374 70.8882 264.442 70.229Z" fill="white"/>
<path d="M278.197 70.2441C278.304 69.59 277.86 68.9734 277.206 68.8668C276.552 68.7602 275.935 69.204 275.829 69.8582C275.722 70.5123 276.166 71.129 276.82 71.2355C277.474 71.3421 278.091 70.8982 278.197 70.2441Z" fill="white"/>
<path d="M1.36505 84.74C2.02779 84.74 2.565 84.2027 2.565 83.54C2.565 82.8773 2.02779 82.34 1.36505 82.34C0.70231 82.34 0.165039 82.8773 0.165039 83.54C0.165039 84.2027 0.70231 84.74 1.36505 84.74Z" fill="white"/>
<path d="M15.1453 84.74C15.8081 84.74 16.3453 84.2027 16.3453 83.54C16.3453 82.8773 15.8081 82.34 15.1453 82.34C14.4826 82.34 13.9453 82.8773 13.9453 83.54C13.9453 84.2027 14.4826 84.74 15.1453 84.74Z" fill="white"/>
<path d="M30.1251 83.54C30.1251 84.2 29.5851 84.74 28.9251 84.74C28.2651 84.74 27.7251 84.2 27.7251 83.54C27.7251 82.88 28.2651 82.34 28.9251 82.34C29.5851 82.34 30.1251 82.88 30.1251 83.54Z" fill="white"/>
<path d="M42.7049 84.74C43.3676 84.74 43.9049 84.2027 43.9049 83.54C43.9049 82.8773 43.3676 82.34 42.7049 82.34C42.0422 82.34 41.5049 82.8773 41.5049 83.54C41.5049 84.2027 42.0422 84.74 42.7049 84.74Z" fill="white"/>
<path d="M56.4852 84.74C57.1479 84.74 57.6852 84.2027 57.6852 83.54C57.6852 82.8773 57.1479 82.34 56.4852 82.34C55.8224 82.34 55.2852 82.8773 55.2852 83.54C55.2852 84.2027 55.8224 84.74 56.4852 84.74Z" fill="white"/>
<path d="M70.265 84.74C70.9277 84.74 71.465 84.2027 71.465 83.54C71.465 82.8773 70.9277 82.34 70.265 82.34C69.6022 82.34 69.0649 82.8773 69.0649 83.54C69.0649 84.2027 69.6022 84.74 70.265 84.74Z" fill="white"/>
<path d="M84.055 84.74C84.7177 84.74 85.2549 84.2027 85.2549 83.54C85.2549 82.8773 84.7177 82.34 84.055 82.34C83.3923 82.34 82.855 82.8773 82.855 83.54C82.855 84.2027 83.3923 84.74 84.055 84.74Z" fill="white"/>
<path d="M97.8353 84.74C98.498 84.74 99.0353 84.2027 99.0353 83.54C99.0353 82.8773 98.498 82.34 97.8353 82.34C97.1725 82.34 96.6353 82.8773 96.6353 83.54C96.6353 84.2027 97.1725 84.74 97.8353 84.74Z" fill="white"/>
<path d="M111.615 84.74C112.278 84.74 112.815 84.2027 112.815 83.54C112.815 82.8773 112.278 82.34 111.615 82.34C110.952 82.34 110.415 82.8773 110.415 83.54C110.415 84.2027 110.952 84.74 111.615 84.74Z" fill="white"/>
<path d="M126.595 83.54C126.595 84.2 126.055 84.74 125.395 84.74C124.735 84.74 124.195 84.2 124.195 83.54C124.195 82.88 124.735 82.34 125.395 82.34C126.055 82.34 126.595 82.88 126.595 83.54Z" fill="white"/>
<path d="M139.175 84.74C139.838 84.74 140.375 84.2027 140.375 83.54C140.375 82.8773 139.838 82.34 139.175 82.34C138.512 82.34 137.975 82.8773 137.975 83.54C137.975 84.2027 138.512 84.74 139.175 84.74Z" fill="white"/>
<path d="M152.955 84.74C153.618 84.74 154.155 84.2027 154.155 83.54C154.155 82.8773 153.618 82.34 152.955 82.34C152.292 82.34 151.755 82.8773 151.755 83.54C151.755 84.2027 152.292 84.74 152.955 84.74Z" fill="white"/>
<path d="M166.745 84.74C167.408 84.74 167.945 84.2027 167.945 83.54C167.945 82.8773 167.408 82.34 166.745 82.34C166.082 82.34 165.545 82.8773 165.545 83.54C165.545 84.2027 166.082 84.74 166.745 84.74Z" fill="white"/>
<path d="M180.525 84.74C181.188 84.74 181.725 84.2027 181.725 83.54C181.725 82.8773 181.188 82.34 180.525 82.34C179.862 82.34 179.325 82.8773 179.325 83.54C179.325 84.2027 179.862 84.74 180.525 84.74Z" fill="white"/>
<path d="M194.305 84.74C194.968 84.74 195.505 84.2027 195.505 83.54C195.505 82.8773 194.968 82.34 194.305 82.34C193.642 82.34 193.105 82.8773 193.105 83.54C193.105 84.2027 193.642 84.74 194.305 84.74Z" fill="white"/>
<path d="M208.085 84.74C208.748 84.74 209.285 84.2027 209.285 83.54C209.285 82.8773 208.748 82.34 208.085 82.34C207.423 82.34 206.885 82.8773 206.885 83.54C206.885 84.2027 207.423 84.74 208.085 84.74Z" fill="white"/>
<path d="M221.865 84.74C222.528 84.74 223.065 84.2027 223.065 83.54C223.065 82.8773 222.528 82.34 221.865 82.34C221.202 82.34 220.665 82.8773 220.665 83.54C220.665 84.2027 221.202 84.74 221.865 84.74Z" fill="white"/>
<path d="M235.645 84.74C236.308 84.74 236.845 84.2027 236.845 83.54C236.845 82.8773 236.308 82.34 235.645 82.34C234.983 82.34 234.445 82.8773 234.445 83.54C234.445 84.2027 234.983 84.74 235.645 84.74Z" fill="white"/>
<path d="M250.625 83.54C250.625 84.2 250.085 84.74 249.425 84.74C248.765 84.74 248.225 84.2 248.225 83.54C248.225 82.88 248.765 82.34 249.425 82.34C250.095 82.34 250.625 82.88 250.625 83.54Z" fill="white"/>
<path d="M263.215 84.74C263.878 84.74 264.415 84.2027 264.415 83.54C264.415 82.8773 263.878 82.34 263.215 82.34C262.552 82.34 262.015 82.8773 262.015 83.54C262.015 84.2027 262.552 84.74 263.215 84.74Z" fill="white"/>
<path d="M276.995 84.74C277.658 84.74 278.195 84.2027 278.195 83.54C278.195 82.8773 277.658 82.34 276.995 82.34C276.332 82.34 275.795 82.8773 275.795 83.54C275.795 84.2027 276.332 84.74 276.995 84.74Z" fill="white"/>
<path d="M1.36505 98.22C2.02779 98.22 2.565 97.6827 2.565 97.02C2.565 96.3573 2.02779 95.82 1.36505 95.82C0.70231 95.82 0.165039 96.3573 0.165039 97.02C0.165039 97.6827 0.70231 98.22 1.36505 98.22Z" fill="white"/>
<path d="M15.1453 98.22C15.8081 98.22 16.3453 97.6827 16.3453 97.02C16.3453 96.3573 15.8081 95.82 15.1453 95.82C14.4826 95.82 13.9453 96.3573 13.9453 97.02C13.9453 97.6827 14.4826 98.22 15.1453 98.22Z" fill="white"/>
<path d="M30.1251 97.02C30.1251 97.68 29.5851 98.22 28.9251 98.22C28.2651 98.22 27.7251 97.68 27.7251 97.02C27.7251 96.36 28.2651 95.82 28.9251 95.82C29.5851 95.82 30.1251 96.36 30.1251 97.02Z" fill="white"/>
<path d="M42.7049 98.22C43.3676 98.22 43.9049 97.6827 43.9049 97.02C43.9049 96.3573 43.3676 95.82 42.7049 95.82C42.0422 95.82 41.5049 96.3573 41.5049 97.02C41.5049 97.6827 42.0422 98.22 42.7049 98.22Z" fill="white"/>
<path d="M56.4852 98.22C57.1479 98.22 57.6852 97.6827 57.6852 97.02C57.6852 96.3573 57.1479 95.82 56.4852 95.82C55.8224 95.82 55.2852 96.3573 55.2852 97.02C55.2852 97.6827 55.8224 98.22 56.4852 98.22Z" fill="white"/>
<path d="M70.265 98.22C70.9277 98.22 71.465 97.6827 71.465 97.02C71.465 96.3573 70.9277 95.82 70.265 95.82C69.6022 95.82 69.0649 96.3573 69.0649 97.02C69.0649 97.6827 69.6022 98.22 70.265 98.22Z" fill="white"/>
<path d="M84.055 98.22C84.7177 98.22 85.2549 97.6827 85.2549 97.02C85.2549 96.3573 84.7177 95.82 84.055 95.82C83.3923 95.82 82.855 96.3573 82.855 97.02C82.855 97.6827 83.3923 98.22 84.055 98.22Z" fill="white"/>
<path d="M97.8353 98.22C98.498 98.22 99.0353 97.6827 99.0353 97.02C99.0353 96.3573 98.498 95.82 97.8353 95.82C97.1725 95.82 96.6353 96.3573 96.6353 97.02C96.6353 97.6827 97.1725 98.22 97.8353 98.22Z" fill="white"/>
<path d="M111.615 98.22C112.278 98.22 112.815 97.6827 112.815 97.02C112.815 96.3573 112.278 95.82 111.615 95.82C110.952 95.82 110.415 96.3573 110.415 97.02C110.415 97.6827 110.952 98.22 111.615 98.22Z" fill="white"/>
<path d="M126.595 97.02C126.595 97.68 126.055 98.22 125.395 98.22C124.735 98.22 124.195 97.68 124.195 97.02C124.195 96.36 124.735 95.82 125.395 95.82C126.055 95.82 126.595 96.36 126.595 97.02Z" fill="white"/>
<path d="M139.175 98.22C139.838 98.22 140.375 97.6827 140.375 97.02C140.375 96.3573 139.838 95.82 139.175 95.82C138.512 95.82 137.975 96.3573 137.975 97.02C137.975 97.6827 138.512 98.22 139.175 98.22Z" fill="white"/>
<path d="M152.955 98.22C153.618 98.22 154.155 97.6827 154.155 97.02C154.155 96.3573 153.618 95.82 152.955 95.82C152.292 95.82 151.755 96.3573 151.755 97.02C151.755 97.6827 152.292 98.22 152.955 98.22Z" fill="white"/>
<path d="M166.745 98.22C167.408 98.22 167.945 97.6827 167.945 97.02C167.945 96.3573 167.408 95.82 166.745 95.82C166.082 95.82 165.545 96.3573 165.545 97.02C165.545 97.6827 166.082 98.22 166.745 98.22Z" fill="white"/>
<path d="M180.525 98.22C181.188 98.22 181.725 97.6827 181.725 97.02C181.725 96.3573 181.188 95.82 180.525 95.82C179.862 95.82 179.325 96.3573 179.325 97.02C179.325 97.6827 179.862 98.22 180.525 98.22Z" fill="white"/>
<path d="M194.305 98.22C194.968 98.22 195.505 97.6827 195.505 97.02C195.505 96.3573 194.968 95.82 194.305 95.82C193.642 95.82 193.105 96.3573 193.105 97.02C193.105 97.6827 193.642 98.22 194.305 98.22Z" fill="white"/>
<path d="M208.085 98.22C208.748 98.22 209.285 97.6827 209.285 97.02C209.285 96.3573 208.748 95.82 208.085 95.82C207.423 95.82 206.885 96.3573 206.885 97.02C206.885 97.6827 207.423 98.22 208.085 98.22Z" fill="white"/>
<path d="M221.865 98.22C222.528 98.22 223.065 97.6827 223.065 97.02C223.065 96.3573 222.528 95.82 221.865 95.82C221.202 95.82 220.665 96.3573 220.665 97.02C220.665 97.6827 221.202 98.22 221.865 98.22Z" fill="white"/>
<path d="M235.645 98.22C236.308 98.22 236.845 97.6827 236.845 97.02C236.845 96.3573 236.308 95.82 235.645 95.82C234.983 95.82 234.445 96.3573 234.445 97.02C234.445 97.6827 234.983 98.22 235.645 98.22Z" fill="white"/>
<path d="M250.625 97.02C250.625 97.68 250.085 98.22 249.425 98.22C248.765 98.22 248.225 97.68 248.225 97.02C248.225 96.36 248.765 95.82 249.425 95.82C250.095 95.82 250.625 96.36 250.625 97.02Z" fill="white"/>
<path d="M263.215 98.22C263.878 98.22 264.415 97.6827 264.415 97.02C264.415 96.3573 263.878 95.82 263.215 95.82C262.552 95.82 262.015 96.3573 262.015 97.02C262.015 97.6827 262.552 98.22 263.215 98.22Z" fill="white"/>
<path d="M276.995 98.22C277.658 98.22 278.195 97.6827 278.195 97.02C278.195 96.3573 277.658 95.82 276.995 95.82C276.332 95.82 275.795 96.3573 275.795 97.02C275.795 97.6827 276.332 98.22 276.995 98.22Z" fill="white"/>
<path d="M1.36505 111.7C2.02779 111.7 2.565 111.163 2.565 110.5C2.565 109.837 2.02779 109.3 1.36505 109.3C0.70231 109.3 0.165039 109.837 0.165039 110.5C0.165039 111.163 0.70231 111.7 1.36505 111.7Z" fill="white"/>
<path d="M15.1453 111.7C15.8081 111.7 16.3453 111.163 16.3453 110.5C16.3453 109.837 15.8081 109.3 15.1453 109.3C14.4826 109.3 13.9453 109.837 13.9453 110.5C13.9453 111.163 14.4826 111.7 15.1453 111.7Z" fill="white"/>
<path d="M30.1251 110.5C30.1251 111.16 29.5851 111.7 28.9251 111.7C28.2651 111.7 27.7251 111.16 27.7251 110.5C27.7251 109.84 28.2651 109.3 28.9251 109.3C29.5851 109.31 30.1251 109.84 30.1251 110.5Z" fill="white"/>
<path d="M42.7049 111.7C43.3676 111.7 43.9049 111.163 43.9049 110.5C43.9049 109.837 43.3676 109.3 42.7049 109.3C42.0422 109.3 41.5049 109.837 41.5049 110.5C41.5049 111.163 42.0422 111.7 42.7049 111.7Z" fill="white"/>
<path d="M56.4852 111.7C57.1479 111.7 57.6852 111.163 57.6852 110.5C57.6852 109.837 57.1479 109.3 56.4852 109.3C55.8224 109.3 55.2852 109.837 55.2852 110.5C55.2852 111.163 55.8224 111.7 56.4852 111.7Z" fill="white"/>
<path d="M70.265 111.7C70.9277 111.7 71.465 111.163 71.465 110.5C71.465 109.837 70.9277 109.3 70.265 109.3C69.6022 109.3 69.0649 109.837 69.0649 110.5C69.0649 111.163 69.6022 111.7 70.265 111.7Z" fill="white"/>
<path d="M84.055 111.7C84.7177 111.7 85.2549 111.163 85.2549 110.5C85.2549 109.837 84.7177 109.3 84.055 109.3C83.3923 109.3 82.855 109.837 82.855 110.5C82.855 111.163 83.3923 111.7 84.055 111.7Z" fill="white"/>
<path d="M97.8353 111.7C98.498 111.7 99.0353 111.163 99.0353 110.5C99.0353 109.837 98.498 109.3 97.8353 109.3C97.1725 109.3 96.6353 109.837 96.6353 110.5C96.6353 111.163 97.1725 111.7 97.8353 111.7Z" fill="white"/>
<path d="M111.615 111.7C112.278 111.7 112.815 111.163 112.815 110.5C112.815 109.837 112.278 109.3 111.615 109.3C110.952 109.3 110.415 109.837 110.415 110.5C110.415 111.163 110.952 111.7 111.615 111.7Z" fill="white"/>
<path d="M126.595 110.5C126.595 111.16 126.055 111.7 125.395 111.7C124.735 111.7 124.195 111.16 124.195 110.5C124.195 109.84 124.735 109.3 125.395 109.3C126.055 109.31 126.595 109.84 126.595 110.5Z" fill="white"/>
<path d="M139.175 111.7C139.838 111.7 140.375 111.163 140.375 110.5C140.375 109.837 139.838 109.3 139.175 109.3C138.512 109.3 137.975 109.837 137.975 110.5C137.975 111.163 138.512 111.7 139.175 111.7Z" fill="white"/>
<path d="M152.955 111.7C153.618 111.7 154.155 111.163 154.155 110.5C154.155 109.837 153.618 109.3 152.955 109.3C152.292 109.3 151.755 109.837 151.755 110.5C151.755 111.163 152.292 111.7 152.955 111.7Z" fill="white"/>
<path d="M166.745 111.7C167.408 111.7 167.945 111.163 167.945 110.5C167.945 109.837 167.408 109.3 166.745 109.3C166.082 109.3 165.545 109.837 165.545 110.5C165.545 111.163 166.082 111.7 166.745 111.7Z" fill="white"/>
<path d="M180.525 111.7C181.188 111.7 181.725 111.163 181.725 110.5C181.725 109.837 181.188 109.3 180.525 109.3C179.862 109.3 179.325 109.837 179.325 110.5C179.325 111.163 179.862 111.7 180.525 111.7Z" fill="white"/>
<path d="M194.305 111.7C194.968 111.7 195.505 111.163 195.505 110.5C195.505 109.837 194.968 109.3 194.305 109.3C193.642 109.3 193.105 109.837 193.105 110.5C193.105 111.163 193.642 111.7 194.305 111.7Z" fill="white"/>
<path d="M208.085 111.7C208.748 111.7 209.285 111.163 209.285 110.5C209.285 109.837 208.748 109.3 208.085 109.3C207.423 109.3 206.885 109.837 206.885 110.5C206.885 111.163 207.423 111.7 208.085 111.7Z" fill="white"/>
<path d="M221.865 111.7C222.528 111.7 223.065 111.163 223.065 110.5C223.065 109.837 222.528 109.3 221.865 109.3C221.202 109.3 220.665 109.837 220.665 110.5C220.665 111.163 221.202 111.7 221.865 111.7Z" fill="white"/>
<path d="M235.645 111.7C236.308 111.7 236.845 111.163 236.845 110.5C236.845 109.837 236.308 109.3 235.645 109.3C234.983 109.3 234.445 109.837 234.445 110.5C234.445 111.163 234.983 111.7 235.645 111.7Z" fill="white"/>
<path d="M250.625 110.5C250.625 111.16 250.085 111.7 249.425 111.7C248.765 111.7 248.225 111.16 248.225 110.5C248.225 109.84 248.765 109.3 249.425 109.3C250.095 109.31 250.625 109.84 250.625 110.5Z" fill="white"/>
<path d="M263.215 111.7C263.878 111.7 264.415 111.163 264.415 110.5C264.415 109.837 263.878 109.3 263.215 109.3C262.552 109.3 262.015 109.837 262.015 110.5C262.015 111.163 262.552 111.7 263.215 111.7Z" fill="white"/>
<path d="M276.995 111.7C277.658 111.7 278.195 111.163 278.195 110.5C278.195 109.837 277.658 109.3 276.995 109.3C276.332 109.3 275.795 109.837 275.795 110.5C275.795 111.163 276.332 111.7 276.995 111.7Z" fill="white"/>
<path d="M1.36505 125.19C2.02779 125.19 2.565 124.653 2.565 123.99C2.565 123.327 2.02779 122.79 1.36505 122.79C0.70231 122.79 0.165039 123.327 0.165039 123.99C0.165039 124.653 0.70231 125.19 1.36505 125.19Z" fill="white"/>
<path d="M15.1453 125.19C15.8081 125.19 16.3453 124.653 16.3453 123.99C16.3453 123.327 15.8081 122.79 15.1453 122.79C14.4826 122.79 13.9453 123.327 13.9453 123.99C13.9453 124.653 14.4826 125.19 15.1453 125.19Z" fill="white"/>
<path d="M30.1251 123.99C30.1251 124.65 29.5851 125.19 28.9251 125.19C28.2651 125.19 27.7251 124.65 27.7251 123.99C27.7251 123.33 28.2651 122.79 28.9251 122.79C29.5851 122.79 30.1251 123.32 30.1251 123.99Z" fill="white"/>
<path d="M42.7049 125.19C43.3676 125.19 43.9049 124.653 43.9049 123.99C43.9049 123.327 43.3676 122.79 42.7049 122.79C42.0422 122.79 41.5049 123.327 41.5049 123.99C41.5049 124.653 42.0422 125.19 42.7049 125.19Z" fill="white"/>
<path d="M56.4852 125.19C57.1479 125.19 57.6852 124.653 57.6852 123.99C57.6852 123.327 57.1479 122.79 56.4852 122.79C55.8224 122.79 55.2852 123.327 55.2852 123.99C55.2852 124.653 55.8224 125.19 56.4852 125.19Z" fill="white"/>
<path d="M70.265 125.19C70.9277 125.19 71.465 124.653 71.465 123.99C71.465 123.327 70.9277 122.79 70.265 122.79C69.6022 122.79 69.0649 123.327 69.0649 123.99C69.0649 124.653 69.6022 125.19 70.265 125.19Z" fill="white"/>
<path d="M84.055 125.19C84.7177 125.19 85.2549 124.653 85.2549 123.99C85.2549 123.327 84.7177 122.79 84.055 122.79C83.3923 122.79 82.855 123.327 82.855 123.99C82.855 124.653 83.3923 125.19 84.055 125.19Z" fill="white"/>
<path d="M97.8353 125.19C98.498 125.19 99.0353 124.653 99.0353 123.99C99.0353 123.327 98.498 122.79 97.8353 122.79C97.1725 122.79 96.6353 123.327 96.6353 123.99C96.6353 124.653 97.1725 125.19 97.8353 125.19Z" fill="white"/>
<path d="M111.615 125.19C112.278 125.19 112.815 124.653 112.815 123.99C112.815 123.327 112.278 122.79 111.615 122.79C110.952 122.79 110.415 123.327 110.415 123.99C110.415 124.653 110.952 125.19 111.615 125.19Z" fill="white"/>
<path d="M126.595 123.99C126.595 124.65 126.055 125.19 125.395 125.19C124.735 125.19 124.195 124.65 124.195 123.99C124.195 123.33 124.735 122.79 125.395 122.79C126.055 122.79 126.595 123.32 126.595 123.99Z" fill="white"/>
<path d="M139.175 125.19C139.838 125.19 140.375 124.653 140.375 123.99C140.375 123.327 139.838 122.79 139.175 122.79C138.512 122.79 137.975 123.327 137.975 123.99C137.975 124.653 138.512 125.19 139.175 125.19Z" fill="white"/>
<path d="M152.955 125.19C153.618 125.19 154.155 124.653 154.155 123.99C154.155 123.327 153.618 122.79 152.955 122.79C152.292 122.79 151.755 123.327 151.755 123.99C151.755 124.653 152.292 125.19 152.955 125.19Z" fill="white"/>
<path d="M166.745 125.19C167.408 125.19 167.945 124.653 167.945 123.99C167.945 123.327 167.408 122.79 166.745 122.79C166.082 122.79 165.545 123.327 165.545 123.99C165.545 124.653 166.082 125.19 166.745 125.19Z" fill="white"/>
<path d="M180.525 125.19C181.188 125.19 181.725 124.653 181.725 123.99C181.725 123.327 181.188 122.79 180.525 122.79C179.862 122.79 179.325 123.327 179.325 123.99C179.325 124.653 179.862 125.19 180.525 125.19Z" fill="white"/>
<path d="M194.305 125.19C194.968 125.19 195.505 124.653 195.505 123.99C195.505 123.327 194.968 122.79 194.305 122.79C193.642 122.79 193.105 123.327 193.105 123.99C193.105 124.653 193.642 125.19 194.305 125.19Z" fill="white"/>
<path d="M208.085 125.19C208.748 125.19 209.285 124.653 209.285 123.99C209.285 123.327 208.748 122.79 208.085 122.79C207.423 122.79 206.885 123.327 206.885 123.99C206.885 124.653 207.423 125.19 208.085 125.19Z" fill="white"/>
<path d="M221.865 125.19C222.528 125.19 223.065 124.653 223.065 123.99C223.065 123.327 222.528 122.79 221.865 122.79C221.202 122.79 220.665 123.327 220.665 123.99C220.665 124.653 221.202 125.19 221.865 125.19Z" fill="white"/>
<path d="M235.645 125.19C236.308 125.19 236.845 124.653 236.845 123.99C236.845 123.327 236.308 122.79 235.645 122.79C234.983 122.79 234.445 123.327 234.445 123.99C234.445 124.653 234.983 125.19 235.645 125.19Z" fill="white"/>
<path d="M250.625 123.99C250.625 124.65 250.085 125.19 249.425 125.19C248.765 125.19 248.225 124.65 248.225 123.99C248.225 123.33 248.765 122.79 249.425 122.79C250.095 122.79 250.625 123.32 250.625 123.99Z" fill="white"/>
<path d="M263.215 125.19C263.878 125.19 264.415 124.653 264.415 123.99C264.415 123.327 263.878 122.79 263.215 122.79C262.552 122.79 262.015 123.327 262.015 123.99C262.015 124.653 262.552 125.19 263.215 125.19Z" fill="white"/>
<path d="M276.995 125.19C277.658 125.19 278.195 124.653 278.195 123.99C278.195 123.327 277.658 122.79 276.995 122.79C276.332 122.79 275.795 123.327 275.795 123.99C275.795 124.653 276.332 125.19 276.995 125.19Z" fill="white"/>
<path d="M1.36505 138.67C2.02779 138.67 2.565 138.133 2.565 137.47C2.565 136.807 2.02779 136.27 1.36505 136.27C0.70231 136.27 0.165039 136.807 0.165039 137.47C0.165039 138.133 0.70231 138.67 1.36505 138.67Z" fill="white"/>
<path d="M15.1453 138.67C15.8081 138.67 16.3453 138.133 16.3453 137.47C16.3453 136.807 15.8081 136.27 15.1453 136.27C14.4826 136.27 13.9453 136.807 13.9453 137.47C13.9453 138.133 14.4826 138.67 15.1453 138.67Z" fill="white"/>
<path d="M30.1251 137.47C30.1251 138.13 29.5851 138.67 28.9251 138.67C28.2651 138.67 27.7251 138.13 27.7251 137.47C27.7251 136.81 28.2651 136.27 28.9251 136.27C29.5851 136.27 30.1251 136.81 30.1251 137.47Z" fill="white"/>
<path d="M42.7049 138.67C43.3676 138.67 43.9049 138.133 43.9049 137.47C43.9049 136.807 43.3676 136.27 42.7049 136.27C42.0422 136.27 41.5049 136.807 41.5049 137.47C41.5049 138.133 42.0422 138.67 42.7049 138.67Z" fill="white"/>
<path d="M56.4852 138.67C57.1479 138.67 57.6852 138.133 57.6852 137.47C57.6852 136.807 57.1479 136.27 56.4852 136.27C55.8224 136.27 55.2852 136.807 55.2852 137.47C55.2852 138.133 55.8224 138.67 56.4852 138.67Z" fill="white"/>
<path d="M70.265 138.67C70.9277 138.67 71.465 138.133 71.465 137.47C71.465 136.807 70.9277 136.27 70.265 136.27C69.6022 136.27 69.0649 136.807 69.0649 137.47C69.0649 138.133 69.6022 138.67 70.265 138.67Z" fill="white"/>
<path d="M84.055 138.67C84.7177 138.67 85.2549 138.133 85.2549 137.47C85.2549 136.807 84.7177 136.27 84.055 136.27C83.3923 136.27 82.855 136.807 82.855 137.47C82.855 138.133 83.3923 138.67 84.055 138.67Z" fill="white"/>
<path d="M97.8353 138.67C98.498 138.67 99.0353 138.133 99.0353 137.47C99.0353 136.807 98.498 136.27 97.8353 136.27C97.1725 136.27 96.6353 136.807 96.6353 137.47C96.6353 138.133 97.1725 138.67 97.8353 138.67Z" fill="white"/>
<path d="M111.615 138.67C112.278 138.67 112.815 138.133 112.815 137.47C112.815 136.807 112.278 136.27 111.615 136.27C110.952 136.27 110.415 136.807 110.415 137.47C110.415 138.133 110.952 138.67 111.615 138.67Z" fill="white"/>
<path d="M126.595 137.47C126.595 138.13 126.055 138.67 125.395 138.67C124.735 138.67 124.195 138.13 124.195 137.47C124.195 136.81 124.735 136.27 125.395 136.27C126.055 136.27 126.595 136.81 126.595 137.47Z" fill="white"/>
<path d="M139.175 138.67C139.838 138.67 140.375 138.133 140.375 137.47C140.375 136.807 139.838 136.27 139.175 136.27C138.512 136.27 137.975 136.807 137.975 137.47C137.975 138.133 138.512 138.67 139.175 138.67Z" fill="white"/>
<path d="M152.955 138.67C153.618 138.67 154.155 138.133 154.155 137.47C154.155 136.807 153.618 136.27 152.955 136.27C152.292 136.27 151.755 136.807 151.755 137.47C151.755 138.133 152.292 138.67 152.955 138.67Z" fill="white"/>
<path d="M166.745 138.67C167.408 138.67 167.945 138.133 167.945 137.47C167.945 136.807 167.408 136.27 166.745 136.27C166.082 136.27 165.545 136.807 165.545 137.47C165.545 138.133 166.082 138.67 166.745 138.67Z" fill="white"/>
<path d="M180.525 138.67C181.188 138.67 181.725 138.133 181.725 137.47C181.725 136.807 181.188 136.27 180.525 136.27C179.862 136.27 179.325 136.807 179.325 137.47C179.325 138.133 179.862 138.67 180.525 138.67Z" fill="white"/>
<path d="M194.305 138.67C194.968 138.67 195.505 138.133 195.505 137.47C195.505 136.807 194.968 136.27 194.305 136.27C193.642 136.27 193.105 136.807 193.105 137.47C193.105 138.133 193.642 138.67 194.305 138.67Z" fill="white"/>
<path d="M208.085 138.67C208.748 138.67 209.285 138.133 209.285 137.47C209.285 136.807 208.748 136.27 208.085 136.27C207.423 136.27 206.885 136.807 206.885 137.47C206.885 138.133 207.423 138.67 208.085 138.67Z" fill="white"/>
<path d="M221.865 138.67C222.528 138.67 223.065 138.133 223.065 137.47C223.065 136.807 222.528 136.27 221.865 136.27C221.202 136.27 220.665 136.807 220.665 137.47C220.665 138.133 221.202 138.67 221.865 138.67Z" fill="white"/>
<path d="M235.645 138.67C236.308 138.67 236.845 138.133 236.845 137.47C236.845 136.807 236.308 136.27 235.645 136.27C234.983 136.27 234.445 136.807 234.445 137.47C234.445 138.133 234.983 138.67 235.645 138.67Z" fill="white"/>
<path d="M250.625 137.47C250.625 138.13 250.085 138.67 249.425 138.67C248.765 138.67 248.225 138.13 248.225 137.47C248.225 136.81 248.765 136.27 249.425 136.27C250.095 136.27 250.625 136.81 250.625 137.47Z" fill="white"/>
<path d="M263.215 138.67C263.878 138.67 264.415 138.133 264.415 137.47C264.415 136.807 263.878 136.27 263.215 136.27C262.552 136.27 262.015 136.807 262.015 137.47C262.015 138.133 262.552 138.67 263.215 138.67Z" fill="white"/>
<path d="M276.995 138.67C277.658 138.67 278.195 138.133 278.195 137.47C278.195 136.807 277.658 136.27 276.995 136.27C276.332 136.27 275.795 136.807 275.795 137.47C275.795 138.133 276.332 138.67 276.995 138.67Z" fill="white"/>
<path d="M1.36505 152.15C2.02779 152.15 2.565 151.613 2.565 150.95C2.565 150.287 2.02779 149.75 1.36505 149.75C0.70231 149.75 0.165039 150.287 0.165039 150.95C0.165039 151.613 0.70231 152.15 1.36505 152.15Z" fill="white"/>
<path d="M15.1453 152.15C15.8081 152.15 16.3453 151.613 16.3453 150.95C16.3453 150.287 15.8081 149.75 15.1453 149.75C14.4826 149.75 13.9453 150.287 13.9453 150.95C13.9453 151.613 14.4826 152.15 15.1453 152.15Z" fill="white"/>
<path d="M30.1251 150.95C30.1251 151.61 29.5851 152.15 28.9251 152.15C28.2651 152.15 27.7251 151.61 27.7251 150.95C27.7251 150.29 28.2651 149.75 28.9251 149.75C29.5851 149.75 30.1251 150.29 30.1251 150.95Z" fill="white"/>
<path d="M42.7049 152.15C43.3676 152.15 43.9049 151.613 43.9049 150.95C43.9049 150.287 43.3676 149.75 42.7049 149.75C42.0422 149.75 41.5049 150.287 41.5049 150.95C41.5049 151.613 42.0422 152.15 42.7049 152.15Z" fill="white"/>
<path d="M56.4852 152.15C57.1479 152.15 57.6852 151.613 57.6852 150.95C57.6852 150.287 57.1479 149.75 56.4852 149.75C55.8224 149.75 55.2852 150.287 55.2852 150.95C55.2852 151.613 55.8224 152.15 56.4852 152.15Z" fill="white"/>
<path d="M70.265 152.15C70.9277 152.15 71.465 151.613 71.465 150.95C71.465 150.287 70.9277 149.75 70.265 149.75C69.6022 149.75 69.0649 150.287 69.0649 150.95C69.0649 151.613 69.6022 152.15 70.265 152.15Z" fill="white"/>
<path d="M84.055 152.15C84.7177 152.15 85.2549 151.613 85.2549 150.95C85.2549 150.287 84.7177 149.75 84.055 149.75C83.3923 149.75 82.855 150.287 82.855 150.95C82.855 151.613 83.3923 152.15 84.055 152.15Z" fill="white"/>
<path d="M97.8353 152.15C98.498 152.15 99.0353 151.613 99.0353 150.95C99.0353 150.287 98.498 149.75 97.8353 149.75C97.1725 149.75 96.6353 150.287 96.6353 150.95C96.6353 151.613 97.1725 152.15 97.8353 152.15Z" fill="white"/>
<path d="M111.615 152.15C112.278 152.15 112.815 151.613 112.815 150.95C112.815 150.287 112.278 149.75 111.615 149.75C110.952 149.75 110.415 150.287 110.415 150.95C110.415 151.613 110.952 152.15 111.615 152.15Z" fill="white"/>
<path d="M126.595 150.95C126.595 151.61 126.055 152.15 125.395 152.15C124.735 152.15 124.195 151.61 124.195 150.95C124.195 150.29 124.735 149.75 125.395 149.75C126.055 149.75 126.595 150.29 126.595 150.95Z" fill="white"/>
<path d="M139.175 152.15C139.838 152.15 140.375 151.613 140.375 150.95C140.375 150.287 139.838 149.75 139.175 149.75C138.512 149.75 137.975 150.287 137.975 150.95C137.975 151.613 138.512 152.15 139.175 152.15Z" fill="white"/>
<path d="M152.955 152.15C153.618 152.15 154.155 151.613 154.155 150.95C154.155 150.287 153.618 149.75 152.955 149.75C152.292 149.75 151.755 150.287 151.755 150.95C151.755 151.613 152.292 152.15 152.955 152.15Z" fill="white"/>
<path d="M166.745 152.15C167.408 152.15 167.945 151.613 167.945 150.95C167.945 150.287 167.408 149.75 166.745 149.75C166.082 149.75 165.545 150.287 165.545 150.95C165.545 151.613 166.082 152.15 166.745 152.15Z" fill="white"/>
<path d="M180.525 152.15C181.188 152.15 181.725 151.613 181.725 150.95C181.725 150.287 181.188 149.75 180.525 149.75C179.862 149.75 179.325 150.287 179.325 150.95C179.325 151.613 179.862 152.15 180.525 152.15Z" fill="white"/>
<path d="M194.305 152.15C194.968 152.15 195.505 151.613 195.505 150.95C195.505 150.287 194.968 149.75 194.305 149.75C193.642 149.75 193.105 150.287 193.105 150.95C193.105 151.613 193.642 152.15 194.305 152.15Z" fill="white"/>
<path d="M208.085 152.15C208.748 152.15 209.285 151.613 209.285 150.95C209.285 150.287 208.748 149.75 208.085 149.75C207.423 149.75 206.885 150.287 206.885 150.95C206.885 151.613 207.423 152.15 208.085 152.15Z" fill="white"/>
<path d="M221.865 152.15C222.528 152.15 223.065 151.613 223.065 150.95C223.065 150.287 222.528 149.75 221.865 149.75C221.202 149.75 220.665 150.287 220.665 150.95C220.665 151.613 221.202 152.15 221.865 152.15Z" fill="white"/>
<path d="M235.645 152.15C236.308 152.15 236.845 151.613 236.845 150.95C236.845 150.287 236.308 149.75 235.645 149.75C234.983 149.75 234.445 150.287 234.445 150.95C234.445 151.613 234.983 152.15 235.645 152.15Z" fill="white"/>
<path d="M250.625 150.95C250.625 151.61 250.085 152.15 249.425 152.15C248.765 152.15 248.225 151.61 248.225 150.95C248.225 150.29 248.765 149.75 249.425 149.75C250.095 149.75 250.625 150.29 250.625 150.95Z" fill="white"/>
<path d="M263.215 152.15C263.878 152.15 264.415 151.613 264.415 150.95C264.415 150.287 263.878 149.75 263.215 149.75C262.552 149.75 262.015 150.287 262.015 150.95C262.015 151.613 262.552 152.15 263.215 152.15Z" fill="white"/>
<path d="M276.995 152.15C277.658 152.15 278.195 151.613 278.195 150.95C278.195 150.287 277.658 149.75 276.995 149.75C276.332 149.75 275.795 150.287 275.795 150.95C275.795 151.613 276.332 152.15 276.995 152.15Z" fill="white"/>
<path d="M1.36505 165.63C2.02779 165.63 2.565 165.093 2.565 164.43C2.565 163.767 2.02779 163.23 1.36505 163.23C0.70231 163.23 0.165039 163.767 0.165039 164.43C0.165039 165.093 0.70231 165.63 1.36505 165.63Z" fill="white"/>
<path d="M15.1453 165.63C15.8081 165.63 16.3453 165.093 16.3453 164.43C16.3453 163.767 15.8081 163.23 15.1453 163.23C14.4826 163.23 13.9453 163.767 13.9453 164.43C13.9453 165.093 14.4826 165.63 15.1453 165.63Z" fill="white"/>
<path d="M30.1251 164.43C30.1251 165.09 29.5851 165.63 28.9251 165.63C28.2651 165.63 27.7251 165.09 27.7251 164.43C27.7251 163.77 28.2651 163.23 28.9251 163.23C29.5851 163.23 30.1251 163.77 30.1251 164.43Z" fill="white"/>
<path d="M42.7049 165.63C43.3676 165.63 43.9049 165.093 43.9049 164.43C43.9049 163.767 43.3676 163.23 42.7049 163.23C42.0422 163.23 41.5049 163.767 41.5049 164.43C41.5049 165.093 42.0422 165.63 42.7049 165.63Z" fill="white"/>
<path d="M56.4852 165.63C57.1479 165.63 57.6852 165.093 57.6852 164.43C57.6852 163.767 57.1479 163.23 56.4852 163.23C55.8224 163.23 55.2852 163.767 55.2852 164.43C55.2852 165.093 55.8224 165.63 56.4852 165.63Z" fill="white"/>
<path d="M70.265 165.63C70.9277 165.63 71.465 165.093 71.465 164.43C71.465 163.767 70.9277 163.23 70.265 163.23C69.6022 163.23 69.0649 163.767 69.0649 164.43C69.0649 165.093 69.6022 165.63 70.265 165.63Z" fill="white"/>
<path d="M84.055 165.63C84.7177 165.63 85.2549 165.093 85.2549 164.43C85.2549 163.767 84.7177 163.23 84.055 163.23C83.3923 163.23 82.855 163.767 82.855 164.43C82.855 165.093 83.3923 165.63 84.055 165.63Z" fill="white"/>
<path d="M97.8353 165.63C98.498 165.63 99.0353 165.093 99.0353 164.43C99.0353 163.767 98.498 163.23 97.8353 163.23C97.1725 163.23 96.6353 163.767 96.6353 164.43C96.6353 165.093 97.1725 165.63 97.8353 165.63Z" fill="white"/>
<path d="M111.615 165.63C112.278 165.63 112.815 165.093 112.815 164.43C112.815 163.767 112.278 163.23 111.615 163.23C110.952 163.23 110.415 163.767 110.415 164.43C110.415 165.093 110.952 165.63 111.615 165.63Z" fill="white"/>
<path d="M126.595 164.43C126.595 165.09 126.055 165.63 125.395 165.63C124.735 165.63 124.195 165.09 124.195 164.43C124.195 163.77 124.735 163.23 125.395 163.23C126.055 163.23 126.595 163.77 126.595 164.43Z" fill="white"/>
<path d="M139.175 165.63C139.838 165.63 140.375 165.093 140.375 164.43C140.375 163.767 139.838 163.23 139.175 163.23C138.512 163.23 137.975 163.767 137.975 164.43C137.975 165.093 138.512 165.63 139.175 165.63Z" fill="white"/>
<path d="M152.955 165.63C153.618 165.63 154.155 165.093 154.155 164.43C154.155 163.767 153.618 163.23 152.955 163.23C152.292 163.23 151.755 163.767 151.755 164.43C151.755 165.093 152.292 165.63 152.955 165.63Z" fill="white"/>
<path d="M166.745 165.63C167.408 165.63 167.945 165.093 167.945 164.43C167.945 163.767 167.408 163.23 166.745 163.23C166.082 163.23 165.545 163.767 165.545 164.43C165.545 165.093 166.082 165.63 166.745 165.63Z" fill="white"/>
<path d="M180.525 165.63C181.188 165.63 181.725 165.093 181.725 164.43C181.725 163.767 181.188 163.23 180.525 163.23C179.862 163.23 179.325 163.767 179.325 164.43C179.325 165.093 179.862 165.63 180.525 165.63Z" fill="white"/>
<path d="M194.305 165.63C194.968 165.63 195.505 165.093 195.505 164.43C195.505 163.767 194.968 163.23 194.305 163.23C193.642 163.23 193.105 163.767 193.105 164.43C193.105 165.093 193.642 165.63 194.305 165.63Z" fill="white"/>
<path d="M208.085 165.63C208.748 165.63 209.285 165.093 209.285 164.43C209.285 163.767 208.748 163.23 208.085 163.23C207.423 163.23 206.885 163.767 206.885 164.43C206.885 165.093 207.423 165.63 208.085 165.63Z" fill="white"/>
<path d="M221.865 165.63C222.528 165.63 223.065 165.093 223.065 164.43C223.065 163.767 222.528 163.23 221.865 163.23C221.202 163.23 220.665 163.767 220.665 164.43C220.665 165.093 221.202 165.63 221.865 165.63Z" fill="white"/>
<path d="M235.645 165.63C236.308 165.63 236.845 165.093 236.845 164.43C236.845 163.767 236.308 163.23 235.645 163.23C234.983 163.23 234.445 163.767 234.445 164.43C234.445 165.093 234.983 165.63 235.645 165.63Z" fill="white"/>
<path d="M250.625 164.43C250.625 165.09 250.085 165.63 249.425 165.63C248.765 165.63 248.225 165.09 248.225 164.43C248.225 163.77 248.765 163.23 249.425 163.23C250.095 163.23 250.625 163.77 250.625 164.43Z" fill="white"/>
<path d="M263.215 165.63C263.878 165.63 264.415 165.093 264.415 164.43C264.415 163.767 263.878 163.23 263.215 163.23C262.552 163.23 262.015 163.767 262.015 164.43C262.015 165.093 262.552 165.63 263.215 165.63Z" fill="white"/>
<path d="M276.995 165.63C277.658 165.63 278.195 165.093 278.195 164.43C278.195 163.767 277.658 163.23 276.995 163.23C276.332 163.23 275.795 163.767 275.795 164.43C275.795 165.093 276.332 165.63 276.995 165.63Z" fill="white"/>
<path d="M1.36505 179.11C2.02779 179.11 2.565 178.573 2.565 177.91C2.565 177.247 2.02779 176.71 1.36505 176.71C0.70231 176.71 0.165039 177.247 0.165039 177.91C0.165039 178.573 0.70231 179.11 1.36505 179.11Z" fill="white"/>
<path d="M15.1453 179.11C15.8081 179.11 16.3453 178.573 16.3453 177.91C16.3453 177.247 15.8081 176.71 15.1453 176.71C14.4826 176.71 13.9453 177.247 13.9453 177.91C13.9453 178.573 14.4826 179.11 15.1453 179.11Z" fill="white"/>
<path d="M30.1251 177.91C30.1251 178.57 29.5851 179.11 28.9251 179.11C28.2651 179.11 27.7251 178.57 27.7251 177.91C27.7251 177.25 28.2651 176.71 28.9251 176.71C29.5851 176.72 30.1251 177.25 30.1251 177.91Z" fill="white"/>
<path d="M42.7049 179.11C43.3676 179.11 43.9049 178.573 43.9049 177.91C43.9049 177.247 43.3676 176.71 42.7049 176.71C42.0422 176.71 41.5049 177.247 41.5049 177.91C41.5049 178.573 42.0422 179.11 42.7049 179.11Z" fill="white"/>
<path d="M56.4852 179.11C57.1479 179.11 57.6852 178.573 57.6852 177.91C57.6852 177.247 57.1479 176.71 56.4852 176.71C55.8224 176.71 55.2852 177.247 55.2852 177.91C55.2852 178.573 55.8224 179.11 56.4852 179.11Z" fill="white"/>
<path d="M70.265 179.11C70.9277 179.11 71.465 178.573 71.465 177.91C71.465 177.247 70.9277 176.71 70.265 176.71C69.6022 176.71 69.0649 177.247 69.0649 177.91C69.0649 178.573 69.6022 179.11 70.265 179.11Z" fill="white"/>
<path d="M84.055 179.11C84.7177 179.11 85.2549 178.573 85.2549 177.91C85.2549 177.247 84.7177 176.71 84.055 176.71C83.3923 176.71 82.855 177.247 82.855 177.91C82.855 178.573 83.3923 179.11 84.055 179.11Z" fill="white"/>
<path d="M97.8353 179.11C98.498 179.11 99.0353 178.573 99.0353 177.91C99.0353 177.247 98.498 176.71 97.8353 176.71C97.1725 176.71 96.6353 177.247 96.6353 177.91C96.6353 178.573 97.1725 179.11 97.8353 179.11Z" fill="white"/>
<path d="M111.615 179.11C112.278 179.11 112.815 178.573 112.815 177.91C112.815 177.247 112.278 176.71 111.615 176.71C110.952 176.71 110.415 177.247 110.415 177.91C110.415 178.573 110.952 179.11 111.615 179.11Z" fill="white"/>
<path d="M126.595 177.91C126.595 178.57 126.055 179.11 125.395 179.11C124.735 179.11 124.195 178.57 124.195 177.91C124.195 177.25 124.735 176.71 125.395 176.71C126.055 176.72 126.595 177.25 126.595 177.91Z" fill="white"/>
<path d="M139.175 179.11C139.838 179.11 140.375 178.573 140.375 177.91C140.375 177.247 139.838 176.71 139.175 176.71C138.512 176.71 137.975 177.247 137.975 177.91C137.975 178.573 138.512 179.11 139.175 179.11Z" fill="white"/>
<path d="M152.955 179.11C153.618 179.11 154.155 178.573 154.155 177.91C154.155 177.247 153.618 176.71 152.955 176.71C152.292 176.71 151.755 177.247 151.755 177.91C151.755 178.573 152.292 179.11 152.955 179.11Z" fill="white"/>
<path d="M166.745 179.11C167.408 179.11 167.945 178.573 167.945 177.91C167.945 177.247 167.408 176.71 166.745 176.71C166.082 176.71 165.545 177.247 165.545 177.91C165.545 178.573 166.082 179.11 166.745 179.11Z" fill="white"/>
<path d="M180.525 179.11C181.188 179.11 181.725 178.573 181.725 177.91C181.725 177.247 181.188 176.71 180.525 176.71C179.862 176.71 179.325 177.247 179.325 177.91C179.325 178.573 179.862 179.11 180.525 179.11Z" fill="white"/>
<path d="M194.305 179.11C194.968 179.11 195.505 178.573 195.505 177.91C195.505 177.247 194.968 176.71 194.305 176.71C193.642 176.71 193.105 177.247 193.105 177.91C193.105 178.573 193.642 179.11 194.305 179.11Z" fill="white"/>
<path d="M208.085 179.11C208.748 179.11 209.285 178.573 209.285 177.91C209.285 177.247 208.748 176.71 208.085 176.71C207.423 176.71 206.885 177.247 206.885 177.91C206.885 178.573 207.423 179.11 208.085 179.11Z" fill="white"/>
<path d="M221.865 179.11C222.528 179.11 223.065 178.573 223.065 177.91C223.065 177.247 222.528 176.71 221.865 176.71C221.202 176.71 220.665 177.247 220.665 177.91C220.665 178.573 221.202 179.11 221.865 179.11Z" fill="white"/>
<path d="M235.645 179.11C236.308 179.11 236.845 178.573 236.845 177.91C236.845 177.247 236.308 176.71 235.645 176.71C234.983 176.71 234.445 177.247 234.445 177.91C234.445 178.573 234.983 179.11 235.645 179.11Z" fill="white"/>
<path d="M250.625 177.91C250.625 178.57 250.085 179.11 249.425 179.11C248.765 179.11 248.225 178.57 248.225 177.91C248.225 177.25 248.765 176.71 249.425 176.71C250.095 176.72 250.625 177.25 250.625 177.91Z" fill="white"/>
<path d="M263.215 179.11C263.878 179.11 264.415 178.573 264.415 177.91C264.415 177.247 263.878 176.71 263.215 176.71C262.552 176.71 262.015 177.247 262.015 177.91C262.015 178.573 262.552 179.11 263.215 179.11Z" fill="white"/>
<path d="M276.995 179.11C277.658 179.11 278.195 178.573 278.195 177.91C278.195 177.247 277.658 176.71 276.995 176.71C276.332 176.71 275.795 177.247 275.795 177.91C275.795 178.573 276.332 179.11 276.995 179.11Z" fill="white"/>
<path d="M1.36505 192.6C2.02779 192.6 2.565 192.063 2.565 191.4C2.565 190.737 2.02779 190.2 1.36505 190.2C0.70231 190.2 0.165039 190.737 0.165039 191.4C0.165039 192.063 0.70231 192.6 1.36505 192.6Z" fill="white"/>
<path d="M15.1453 192.6C15.8081 192.6 16.3453 192.063 16.3453 191.4C16.3453 190.737 15.8081 190.2 15.1453 190.2C14.4826 190.2 13.9453 190.737 13.9453 191.4C13.9453 192.063 14.4826 192.6 15.1453 192.6Z" fill="white"/>
<path d="M30.1251 191.4C30.1251 192.06 29.5851 192.6 28.9251 192.6C28.2651 192.6 27.7251 192.06 27.7251 191.4C27.7251 190.74 28.2651 190.2 28.9251 190.2C29.5851 190.2 30.1251 190.73 30.1251 191.4Z" fill="white"/>
<path d="M42.7049 192.6C43.3676 192.6 43.9049 192.063 43.9049 191.4C43.9049 190.737 43.3676 190.2 42.7049 190.2C42.0422 190.2 41.5049 190.737 41.5049 191.4C41.5049 192.063 42.0422 192.6 42.7049 192.6Z" fill="white"/>
<path d="M56.4852 192.6C57.1479 192.6 57.6852 192.063 57.6852 191.4C57.6852 190.737 57.1479 190.2 56.4852 190.2C55.8224 190.2 55.2852 190.737 55.2852 191.4C55.2852 192.063 55.8224 192.6 56.4852 192.6Z" fill="white"/>
<path d="M70.265 192.6C70.9277 192.6 71.465 192.063 71.465 191.4C71.465 190.737 70.9277 190.2 70.265 190.2C69.6022 190.2 69.0649 190.737 69.0649 191.4C69.0649 192.063 69.6022 192.6 70.265 192.6Z" fill="white"/>
<path d="M84.055 192.6C84.7177 192.6 85.2549 192.063 85.2549 191.4C85.2549 190.737 84.7177 190.2 84.055 190.2C83.3923 190.2 82.855 190.737 82.855 191.4C82.855 192.063 83.3923 192.6 84.055 192.6Z" fill="white"/>
<path d="M97.8353 192.6C98.498 192.6 99.0353 192.063 99.0353 191.4C99.0353 190.737 98.498 190.2 97.8353 190.2C97.1725 190.2 96.6353 190.737 96.6353 191.4C96.6353 192.063 97.1725 192.6 97.8353 192.6Z" fill="white"/>
<path d="M111.615 192.6C112.278 192.6 112.815 192.063 112.815 191.4C112.815 190.737 112.278 190.2 111.615 190.2C110.952 190.2 110.415 190.737 110.415 191.4C110.415 192.063 110.952 192.6 111.615 192.6Z" fill="white"/>
<path d="M126.595 191.4C126.595 192.06 126.055 192.6 125.395 192.6C124.735 192.6 124.195 192.06 124.195 191.4C124.195 190.74 124.735 190.2 125.395 190.2C126.055 190.2 126.595 190.73 126.595 191.4Z" fill="white"/>
<path d="M139.175 192.6C139.838 192.6 140.375 192.063 140.375 191.4C140.375 190.737 139.838 190.2 139.175 190.2C138.512 190.2 137.975 190.737 137.975 191.4C137.975 192.063 138.512 192.6 139.175 192.6Z" fill="white"/>
<path d="M152.955 192.6C153.618 192.6 154.155 192.063 154.155 191.4C154.155 190.737 153.618 190.2 152.955 190.2C152.292 190.2 151.755 190.737 151.755 191.4C151.755 192.063 152.292 192.6 152.955 192.6Z" fill="white"/>
<path d="M166.745 192.6C167.408 192.6 167.945 192.063 167.945 191.4C167.945 190.737 167.408 190.2 166.745 190.2C166.082 190.2 165.545 190.737 165.545 191.4C165.545 192.063 166.082 192.6 166.745 192.6Z" fill="white"/>
<path d="M180.525 192.6C181.188 192.6 181.725 192.063 181.725 191.4C181.725 190.737 181.188 190.2 180.525 190.2C179.862 190.2 179.325 190.737 179.325 191.4C179.325 192.063 179.862 192.6 180.525 192.6Z" fill="white"/>
<path d="M194.305 192.6C194.968 192.6 195.505 192.063 195.505 191.4C195.505 190.737 194.968 190.2 194.305 190.2C193.642 190.2 193.105 190.737 193.105 191.4C193.105 192.063 193.642 192.6 194.305 192.6Z" fill="white"/>
<path d="M208.085 192.6C208.748 192.6 209.285 192.063 209.285 191.4C209.285 190.737 208.748 190.2 208.085 190.2C207.423 190.2 206.885 190.737 206.885 191.4C206.885 192.063 207.423 192.6 208.085 192.6Z" fill="white"/>
<path d="M221.865 192.6C222.528 192.6 223.065 192.063 223.065 191.4C223.065 190.737 222.528 190.2 221.865 190.2C221.202 190.2 220.665 190.737 220.665 191.4C220.665 192.063 221.202 192.6 221.865 192.6Z" fill="white"/>
<path d="M235.645 192.6C236.308 192.6 236.845 192.063 236.845 191.4C236.845 190.737 236.308 190.2 235.645 190.2C234.983 190.2 234.445 190.737 234.445 191.4C234.445 192.063 234.983 192.6 235.645 192.6Z" fill="white"/>
<path d="M250.625 191.4C250.625 192.06 250.085 192.6 249.425 192.6C248.765 192.6 248.225 192.06 248.225 191.4C248.225 190.74 248.765 190.2 249.425 190.2C250.095 190.2 250.625 190.73 250.625 191.4Z" fill="white"/>
<path d="M263.215 192.6C263.878 192.6 264.415 192.063 264.415 191.4C264.415 190.737 263.878 190.2 263.215 190.2C262.552 190.2 262.015 190.737 262.015 191.4C262.015 192.063 262.552 192.6 263.215 192.6Z" fill="white"/>
<path d="M276.995 192.6C277.658 192.6 278.195 192.063 278.195 191.4C278.195 190.737 277.658 190.2 276.995 190.2C276.332 190.2 275.795 190.737 275.795 191.4C275.795 192.063 276.332 192.6 276.995 192.6Z" fill="white"/>
<path d="M1.36505 206.08C2.02779 206.08 2.565 205.543 2.565 204.88C2.565 204.217 2.02779 203.68 1.36505 203.68C0.70231 203.68 0.165039 204.217 0.165039 204.88C0.165039 205.543 0.70231 206.08 1.36505 206.08Z" fill="white"/>
<path d="M15.1453 206.08C15.8081 206.08 16.3453 205.543 16.3453 204.88C16.3453 204.217 15.8081 203.68 15.1453 203.68C14.4826 203.68 13.9453 204.217 13.9453 204.88C13.9453 205.543 14.4826 206.08 15.1453 206.08Z" fill="white"/>
<path d="M30.1251 204.88C30.1251 205.54 29.5851 206.08 28.9251 206.08C28.2651 206.08 27.7251 205.54 27.7251 204.88C27.7251 204.22 28.2651 203.68 28.9251 203.68C29.5851 203.68 30.1251 204.22 30.1251 204.88Z" fill="white"/>
<path d="M42.7049 206.08C43.3676 206.08 43.9049 205.543 43.9049 204.88C43.9049 204.217 43.3676 203.68 42.7049 203.68C42.0422 203.68 41.5049 204.217 41.5049 204.88C41.5049 205.543 42.0422 206.08 42.7049 206.08Z" fill="white"/>
<path d="M56.4852 206.08C57.1479 206.08 57.6852 205.543 57.6852 204.88C57.6852 204.217 57.1479 203.68 56.4852 203.68C55.8224 203.68 55.2852 204.217 55.2852 204.88C55.2852 205.543 55.8224 206.08 56.4852 206.08Z" fill="white"/>
<path d="M70.265 206.08C70.9277 206.08 71.465 205.543 71.465 204.88C71.465 204.217 70.9277 203.68 70.265 203.68C69.6022 203.68 69.0649 204.217 69.0649 204.88C69.0649 205.543 69.6022 206.08 70.265 206.08Z" fill="white"/>
<path d="M84.055 206.08C84.7177 206.08 85.2549 205.543 85.2549 204.88C85.2549 204.217 84.7177 203.68 84.055 203.68C83.3923 203.68 82.855 204.217 82.855 204.88C82.855 205.543 83.3923 206.08 84.055 206.08Z" fill="white"/>
<path d="M97.8353 206.08C98.498 206.08 99.0353 205.543 99.0353 204.88C99.0353 204.217 98.498 203.68 97.8353 203.68C97.1725 203.68 96.6353 204.217 96.6353 204.88C96.6353 205.543 97.1725 206.08 97.8353 206.08Z" fill="white"/>
<path d="M111.615 206.08C112.278 206.08 112.815 205.543 112.815 204.88C112.815 204.217 112.278 203.68 111.615 203.68C110.952 203.68 110.415 204.217 110.415 204.88C110.415 205.543 110.952 206.08 111.615 206.08Z" fill="white"/>
<path d="M126.595 204.88C126.595 205.54 126.055 206.08 125.395 206.08C124.735 206.08 124.195 205.54 124.195 204.88C124.195 204.22 124.735 203.68 125.395 203.68C126.055 203.68 126.595 204.22 126.595 204.88Z" fill="white"/>
<path d="M139.175 206.08C139.838 206.08 140.375 205.543 140.375 204.88C140.375 204.217 139.838 203.68 139.175 203.68C138.512 203.68 137.975 204.217 137.975 204.88C137.975 205.543 138.512 206.08 139.175 206.08Z" fill="white"/>
<path d="M152.955 206.08C153.618 206.08 154.155 205.543 154.155 204.88C154.155 204.217 153.618 203.68 152.955 203.68C152.292 203.68 151.755 204.217 151.755 204.88C151.755 205.543 152.292 206.08 152.955 206.08Z" fill="white"/>
<path d="M166.745 206.08C167.408 206.08 167.945 205.543 167.945 204.88C167.945 204.217 167.408 203.68 166.745 203.68C166.082 203.68 165.545 204.217 165.545 204.88C165.545 205.543 166.082 206.08 166.745 206.08Z" fill="white"/>
<path d="M180.525 206.08C181.188 206.08 181.725 205.543 181.725 204.88C181.725 204.217 181.188 203.68 180.525 203.68C179.862 203.68 179.325 204.217 179.325 204.88C179.325 205.543 179.862 206.08 180.525 206.08Z" fill="white"/>
<path d="M194.305 206.08C194.968 206.08 195.505 205.543 195.505 204.88C195.505 204.217 194.968 203.68 194.305 203.68C193.642 203.68 193.105 204.217 193.105 204.88C193.105 205.543 193.642 206.08 194.305 206.08Z" fill="white"/>
<path d="M208.085 206.08C208.748 206.08 209.285 205.543 209.285 204.88C209.285 204.217 208.748 203.68 208.085 203.68C207.423 203.68 206.885 204.217 206.885 204.88C206.885 205.543 207.423 206.08 208.085 206.08Z" fill="white"/>
<path d="M221.865 206.08C222.528 206.08 223.065 205.543 223.065 204.88C223.065 204.217 222.528 203.68 221.865 203.68C221.202 203.68 220.665 204.217 220.665 204.88C220.665 205.543 221.202 206.08 221.865 206.08Z" fill="white"/>
<path d="M235.645 206.08C236.308 206.08 236.845 205.543 236.845 204.88C236.845 204.217 236.308 203.68 235.645 203.68C234.983 203.68 234.445 204.217 234.445 204.88C234.445 205.543 234.983 206.08 235.645 206.08Z" fill="white"/>
<path d="M250.625 204.88C250.625 205.54 250.085 206.08 249.425 206.08C248.765 206.08 248.225 205.54 248.225 204.88C248.225 204.22 248.765 203.68 249.425 203.68C250.095 203.68 250.625 204.22 250.625 204.88Z" fill="white"/>
<path d="M263.215 206.08C263.878 206.08 264.415 205.543 264.415 204.88C264.415 204.217 263.878 203.68 263.215 203.68C262.552 203.68 262.015 204.217 262.015 204.88C262.015 205.543 262.552 206.08 263.215 206.08Z" fill="white"/>
<path d="M276.995 206.08C277.658 206.08 278.195 205.543 278.195 204.88C278.195 204.217 277.658 203.68 276.995 203.68C276.332 203.68 275.795 204.217 275.795 204.88C275.795 205.543 276.332 206.08 276.995 206.08Z" fill="white"/>
<path d="M1.36505 219.56C2.02779 219.56 2.565 219.023 2.565 218.36C2.565 217.697 2.02779 217.16 1.36505 217.16C0.70231 217.16 0.165039 217.697 0.165039 218.36C0.165039 219.023 0.70231 219.56 1.36505 219.56Z" fill="white"/>
<path d="M15.1453 219.56C15.8081 219.56 16.3453 219.023 16.3453 218.36C16.3453 217.697 15.8081 217.16 15.1453 217.16C14.4826 217.16 13.9453 217.697 13.9453 218.36C13.9453 219.023 14.4826 219.56 15.1453 219.56Z" fill="white"/>
<path d="M30.1251 218.36C30.1251 219.02 29.5851 219.56 28.9251 219.56C28.2651 219.56 27.7251 219.02 27.7251 218.36C27.7251 217.7 28.2651 217.16 28.9251 217.16C29.5851 217.16 30.1251 217.7 30.1251 218.36Z" fill="white"/>
<path d="M42.7049 219.56C43.3676 219.56 43.9049 219.023 43.9049 218.36C43.9049 217.697 43.3676 217.16 42.7049 217.16C42.0422 217.16 41.5049 217.697 41.5049 218.36C41.5049 219.023 42.0422 219.56 42.7049 219.56Z" fill="white"/>
<path d="M56.4852 219.56C57.1479 219.56 57.6852 219.023 57.6852 218.36C57.6852 217.697 57.1479 217.16 56.4852 217.16C55.8224 217.16 55.2852 217.697 55.2852 218.36C55.2852 219.023 55.8224 219.56 56.4852 219.56Z" fill="white"/>
<path d="M70.265 219.56C70.9277 219.56 71.465 219.023 71.465 218.36C71.465 217.697 70.9277 217.16 70.265 217.16C69.6022 217.16 69.0649 217.697 69.0649 218.36C69.0649 219.023 69.6022 219.56 70.265 219.56Z" fill="white"/>
<path d="M84.055 219.56C84.7177 219.56 85.2549 219.023 85.2549 218.36C85.2549 217.697 84.7177 217.16 84.055 217.16C83.3923 217.16 82.855 217.697 82.855 218.36C82.855 219.023 83.3923 219.56 84.055 219.56Z" fill="white"/>
<path d="M97.8353 219.56C98.498 219.56 99.0353 219.023 99.0353 218.36C99.0353 217.697 98.498 217.16 97.8353 217.16C97.1725 217.16 96.6353 217.697 96.6353 218.36C96.6353 219.023 97.1725 219.56 97.8353 219.56Z" fill="white"/>
<path d="M111.615 219.56C112.278 219.56 112.815 219.023 112.815 218.36C112.815 217.697 112.278 217.16 111.615 217.16C110.952 217.16 110.415 217.697 110.415 218.36C110.415 219.023 110.952 219.56 111.615 219.56Z" fill="white"/>
<path d="M126.595 218.36C126.595 219.02 126.055 219.56 125.395 219.56C124.735 219.56 124.195 219.02 124.195 218.36C124.195 217.7 124.735 217.16 125.395 217.16C126.055 217.16 126.595 217.7 126.595 218.36Z" fill="white"/>
<path d="M139.175 219.56C139.838 219.56 140.375 219.023 140.375 218.36C140.375 217.697 139.838 217.16 139.175 217.16C138.512 217.16 137.975 217.697 137.975 218.36C137.975 219.023 138.512 219.56 139.175 219.56Z" fill="white"/>
<path d="M152.955 219.56C153.618 219.56 154.155 219.023 154.155 218.36C154.155 217.697 153.618 217.16 152.955 217.16C152.292 217.16 151.755 217.697 151.755 218.36C151.755 219.023 152.292 219.56 152.955 219.56Z" fill="white"/>
<path d="M166.745 219.56C167.408 219.56 167.945 219.023 167.945 218.36C167.945 217.697 167.408 217.16 166.745 217.16C166.082 217.16 165.545 217.697 165.545 218.36C165.545 219.023 166.082 219.56 166.745 219.56Z" fill="white"/>
<path d="M180.525 219.56C181.188 219.56 181.725 219.023 181.725 218.36C181.725 217.697 181.188 217.16 180.525 217.16C179.862 217.16 179.325 217.697 179.325 218.36C179.325 219.023 179.862 219.56 180.525 219.56Z" fill="white"/>
<path d="M194.305 219.56C194.968 219.56 195.505 219.023 195.505 218.36C195.505 217.697 194.968 217.16 194.305 217.16C193.642 217.16 193.105 217.697 193.105 218.36C193.105 219.023 193.642 219.56 194.305 219.56Z" fill="white"/>
<path d="M208.085 219.56C208.748 219.56 209.285 219.023 209.285 218.36C209.285 217.697 208.748 217.16 208.085 217.16C207.423 217.16 206.885 217.697 206.885 218.36C206.885 219.023 207.423 219.56 208.085 219.56Z" fill="white"/>
<path d="M221.865 219.56C222.528 219.56 223.065 219.023 223.065 218.36C223.065 217.697 222.528 217.16 221.865 217.16C221.202 217.16 220.665 217.697 220.665 218.36C220.665 219.023 221.202 219.56 221.865 219.56Z" fill="white"/>
<path d="M235.645 219.56C236.308 219.56 236.845 219.023 236.845 218.36C236.845 217.697 236.308 217.16 235.645 217.16C234.983 217.16 234.445 217.697 234.445 218.36C234.445 219.023 234.983 219.56 235.645 219.56Z" fill="white"/>
<path d="M250.625 218.36C250.625 219.02 250.085 219.56 249.425 219.56C248.765 219.56 248.225 219.02 248.225 218.36C248.225 217.7 248.765 217.16 249.425 217.16C250.095 217.16 250.625 217.7 250.625 218.36Z" fill="white"/>
<path d="M263.215 219.56C263.878 219.56 264.415 219.023 264.415 218.36C264.415 217.697 263.878 217.16 263.215 217.16C262.552 217.16 262.015 217.697 262.015 218.36C262.015 219.023 262.552 219.56 263.215 219.56Z" fill="white"/>
<path d="M276.995 219.56C277.658 219.56 278.195 219.023 278.195 218.36C278.195 217.697 277.658 217.16 276.995 217.16C276.332 217.16 275.795 217.697 275.795 218.36C275.795 219.023 276.332 219.56 276.995 219.56Z" fill="white"/>
<path d="M1.36505 233.04C2.02779 233.04 2.565 232.503 2.565 231.84C2.565 231.177 2.02779 230.64 1.36505 230.64C0.70231 230.64 0.165039 231.177 0.165039 231.84C0.165039 232.503 0.70231 233.04 1.36505 233.04Z" fill="white"/>
<path d="M15.1453 233.04C15.8081 233.04 16.3453 232.503 16.3453 231.84C16.3453 231.177 15.8081 230.64 15.1453 230.64C14.4826 230.64 13.9453 231.177 13.9453 231.84C13.9453 232.503 14.4826 233.04 15.1453 233.04Z" fill="white"/>
<path d="M30.1251 231.84C30.1251 232.5 29.5851 233.04 28.9251 233.04C28.2651 233.04 27.7251 232.5 27.7251 231.84C27.7251 231.18 28.2651 230.64 28.9251 230.64C29.5851 230.64 30.1251 231.18 30.1251 231.84Z" fill="white"/>
<path d="M42.7049 233.04C43.3676 233.04 43.9049 232.503 43.9049 231.84C43.9049 231.177 43.3676 230.64 42.7049 230.64C42.0422 230.64 41.5049 231.177 41.5049 231.84C41.5049 232.503 42.0422 233.04 42.7049 233.04Z" fill="white"/>
<path d="M56.4852 233.04C57.1479 233.04 57.6852 232.503 57.6852 231.84C57.6852 231.177 57.1479 230.64 56.4852 230.64C55.8224 230.64 55.2852 231.177 55.2852 231.84C55.2852 232.503 55.8224 233.04 56.4852 233.04Z" fill="white"/>
<path d="M70.265 233.04C70.9277 233.04 71.465 232.503 71.465 231.84C71.465 231.177 70.9277 230.64 70.265 230.64C69.6022 230.64 69.0649 231.177 69.0649 231.84C69.0649 232.503 69.6022 233.04 70.265 233.04Z" fill="white"/>
<path d="M84.055 233.04C84.7177 233.04 85.2549 232.503 85.2549 231.84C85.2549 231.177 84.7177 230.64 84.055 230.64C83.3923 230.64 82.855 231.177 82.855 231.84C82.855 232.503 83.3923 233.04 84.055 233.04Z" fill="white"/>
<path d="M97.8353 233.04C98.498 233.04 99.0353 232.503 99.0353 231.84C99.0353 231.177 98.498 230.64 97.8353 230.64C97.1725 230.64 96.6353 231.177 96.6353 231.84C96.6353 232.503 97.1725 233.04 97.8353 233.04Z" fill="white"/>
<path d="M111.615 233.04C112.278 233.04 112.815 232.503 112.815 231.84C112.815 231.177 112.278 230.64 111.615 230.64C110.952 230.64 110.415 231.177 110.415 231.84C110.415 232.503 110.952 233.04 111.615 233.04Z" fill="white"/>
<path d="M126.595 231.84C126.595 232.5 126.055 233.04 125.395 233.04C124.735 233.04 124.195 232.5 124.195 231.84C124.195 231.18 124.735 230.64 125.395 230.64C126.055 230.64 126.595 231.18 126.595 231.84Z" fill="white"/>
<path d="M139.175 233.04C139.838 233.04 140.375 232.503 140.375 231.84C140.375 231.177 139.838 230.64 139.175 230.64C138.512 230.64 137.975 231.177 137.975 231.84C137.975 232.503 138.512 233.04 139.175 233.04Z" fill="white"/>
<path d="M152.955 233.04C153.618 233.04 154.155 232.503 154.155 231.84C154.155 231.177 153.618 230.64 152.955 230.64C152.292 230.64 151.755 231.177 151.755 231.84C151.755 232.503 152.292 233.04 152.955 233.04Z" fill="white"/>
<path d="M166.745 233.04C167.408 233.04 167.945 232.503 167.945 231.84C167.945 231.177 167.408 230.64 166.745 230.64C166.082 230.64 165.545 231.177 165.545 231.84C165.545 232.503 166.082 233.04 166.745 233.04Z" fill="white"/>
<path d="M180.525 233.04C181.188 233.04 181.725 232.503 181.725 231.84C181.725 231.177 181.188 230.64 180.525 230.64C179.862 230.64 179.325 231.177 179.325 231.84C179.325 232.503 179.862 233.04 180.525 233.04Z" fill="white"/>
<path d="M194.305 233.04C194.968 233.04 195.505 232.503 195.505 231.84C195.505 231.177 194.968 230.64 194.305 230.64C193.642 230.64 193.105 231.177 193.105 231.84C193.105 232.503 193.642 233.04 194.305 233.04Z" fill="white"/>
<path d="M208.085 233.04C208.748 233.04 209.285 232.503 209.285 231.84C209.285 231.177 208.748 230.64 208.085 230.64C207.423 230.64 206.885 231.177 206.885 231.84C206.885 232.503 207.423 233.04 208.085 233.04Z" fill="white"/>
<path d="M221.865 233.04C222.528 233.04 223.065 232.503 223.065 231.84C223.065 231.177 222.528 230.64 221.865 230.64C221.202 230.64 220.665 231.177 220.665 231.84C220.665 232.503 221.202 233.04 221.865 233.04Z" fill="white"/>
<path d="M235.645 233.04C236.308 233.04 236.845 232.503 236.845 231.84C236.845 231.177 236.308 230.64 235.645 230.64C234.983 230.64 234.445 231.177 234.445 231.84C234.445 232.503 234.983 233.04 235.645 233.04Z" fill="white"/>
<path d="M250.625 231.84C250.625 232.5 250.085 233.04 249.425 233.04C248.765 233.04 248.225 232.5 248.225 231.84C248.225 231.18 248.765 230.64 249.425 230.64C250.095 230.64 250.625 231.18 250.625 231.84Z" fill="white"/>
<path d="M263.215 233.04C263.878 233.04 264.415 232.503 264.415 231.84C264.415 231.177 263.878 230.64 263.215 230.64C262.552 230.64 262.015 231.177 262.015 231.84C262.015 232.503 262.552 233.04 263.215 233.04Z" fill="white"/>
<path d="M276.995 233.04C277.658 233.04 278.195 232.503 278.195 231.84C278.195 231.177 277.658 230.64 276.995 230.64C276.332 230.64 275.795 231.177 275.795 231.84C275.795 232.503 276.332 233.04 276.995 233.04Z" fill="white"/>
<path d="M2.565 245.32C2.565 245.98 2.02505 246.52 1.36505 246.52C0.705051 246.52 0.165039 245.98 0.165039 245.32C0.165039 244.66 0.705051 244.12 1.36505 244.12C2.02505 244.13 2.565 244.66 2.565 245.32Z" fill="white"/>
<path d="M16.3453 245.32C16.3453 245.98 15.8053 246.52 15.1453 246.52C14.4853 246.52 13.9453 245.98 13.9453 245.32C13.9453 244.66 14.4853 244.12 15.1453 244.12C15.8053 244.13 16.3453 244.66 16.3453 245.32Z" fill="white"/>
<path d="M30.1251 245.32C30.1251 245.98 29.5851 246.52 28.9251 246.52C28.2651 246.52 27.7251 245.98 27.7251 245.32C27.7251 244.66 28.2651 244.12 28.9251 244.12C29.5851 244.13 30.1251 244.66 30.1251 245.32Z" fill="white"/>
<path d="M43.9049 245.32C43.9049 245.98 43.3649 246.52 42.7049 246.52C42.0449 246.52 41.5049 245.98 41.5049 245.32C41.5049 244.66 42.0449 244.12 42.7049 244.12C43.3649 244.13 43.9049 244.66 43.9049 245.32Z" fill="white"/>
<path d="M57.6852 245.32C57.6852 245.98 57.1452 246.52 56.4852 246.52C55.8252 246.52 55.2852 245.98 55.2852 245.32C55.2852 244.66 55.8252 244.12 56.4852 244.12C57.1452 244.13 57.6852 244.66 57.6852 245.32Z" fill="white"/>
<path d="M71.465 245.32C71.465 245.98 70.925 246.52 70.265 246.52C69.605 246.52 69.0649 245.98 69.0649 245.32C69.0649 244.66 69.605 244.12 70.265 244.12C70.935 244.13 71.465 244.66 71.465 245.32Z" fill="white"/>
<path d="M85.2452 245.32C85.2452 245.98 84.7052 246.52 84.0452 246.52C83.3852 246.52 82.8452 245.98 82.8452 245.32C82.8452 244.66 83.3852 244.12 84.0452 244.12C84.7152 244.13 85.2452 244.66 85.2452 245.32Z" fill="white"/>
<path d="M99.0353 245.32C99.0353 245.98 98.4953 246.52 97.8353 246.52C97.1753 246.52 96.6353 245.98 96.6353 245.32C96.6353 244.66 97.1753 244.12 97.8353 244.12C98.4953 244.13 99.0353 244.66 99.0353 245.32Z" fill="white"/>
<path d="M112.815 245.32C112.815 245.98 112.275 246.52 111.615 246.52C110.955 246.52 110.415 245.98 110.415 245.32C110.415 244.66 110.955 244.12 111.615 244.12C112.275 244.13 112.815 244.66 112.815 245.32Z" fill="white"/>
<path d="M126.595 245.32C126.595 245.98 126.055 246.52 125.395 246.52C124.735 246.52 124.195 245.98 124.195 245.32C124.195 244.66 124.735 244.12 125.395 244.12C126.055 244.13 126.595 244.66 126.595 245.32Z" fill="white"/>
<path d="M140.375 245.32C140.375 245.98 139.835 246.52 139.175 246.52C138.515 246.52 137.975 245.98 137.975 245.32C137.975 244.66 138.515 244.12 139.175 244.12C139.835 244.13 140.375 244.66 140.375 245.32Z" fill="white"/>
<path d="M154.155 245.32C154.155 245.98 153.615 246.52 152.955 246.52C152.295 246.52 151.755 245.98 151.755 245.32C151.755 244.66 152.295 244.12 152.955 244.12C153.625 244.13 154.155 244.66 154.155 245.32Z" fill="white"/>
<path d="M167.935 245.32C167.935 245.98 167.395 246.52 166.735 246.52C166.075 246.52 165.535 245.98 165.535 245.32C165.535 244.66 166.075 244.12 166.735 244.12C167.405 244.13 167.935 244.66 167.935 245.32Z" fill="white"/>
<path d="M181.725 245.32C181.725 245.98 181.185 246.52 180.525 246.52C179.865 246.52 179.325 245.98 179.325 245.32C179.325 244.66 179.865 244.12 180.525 244.12C181.185 244.13 181.725 244.66 181.725 245.32Z" fill="white"/>
<path d="M195.505 245.32C195.505 245.98 194.965 246.52 194.305 246.52C193.645 246.52 193.105 245.98 193.105 245.32C193.105 244.66 193.645 244.12 194.305 244.12C194.965 244.13 195.505 244.66 195.505 245.32Z" fill="white"/>
<path d="M209.285 245.32C209.285 245.98 208.745 246.52 208.085 246.52C207.425 246.52 206.885 245.98 206.885 245.32C206.885 244.66 207.425 244.12 208.085 244.12C208.745 244.13 209.285 244.66 209.285 245.32Z" fill="white"/>
<path d="M223.065 245.32C223.065 245.98 222.525 246.52 221.865 246.52C221.205 246.52 220.665 245.98 220.665 245.32C220.665 244.66 221.205 244.12 221.865 244.12C222.525 244.13 223.065 244.66 223.065 245.32Z" fill="white"/>
<path d="M236.845 245.32C236.845 245.98 236.305 246.52 235.645 246.52C234.985 246.52 234.445 245.98 234.445 245.32C234.445 244.66 234.985 244.12 235.645 244.12C236.315 244.13 236.845 244.66 236.845 245.32Z" fill="white"/>
<path d="M250.625 245.32C250.625 245.98 250.085 246.52 249.425 246.52C248.765 246.52 248.225 245.98 248.225 245.32C248.225 244.66 248.765 244.12 249.425 244.12C250.095 244.13 250.625 244.66 250.625 245.32Z" fill="white"/>
<path d="M264.415 245.32C264.415 245.98 263.875 246.52 263.215 246.52C262.555 246.52 262.015 245.98 262.015 245.32C262.015 244.66 262.555 244.12 263.215 244.12C263.875 244.13 264.415 244.66 264.415 245.32Z" fill="white"/>
<path d="M278.195 245.32C278.195 245.98 277.655 246.52 276.995 246.52C276.335 246.52 275.795 245.98 275.795 245.32C275.795 244.66 276.335 244.12 276.995 244.12C277.655 244.13 278.195 244.66 278.195 245.32Z" fill="white"/>
<path d="M1.36505 260.01C2.02779 260.01 2.565 259.473 2.565 258.81C2.565 258.147 2.02779 257.61 1.36505 257.61C0.70231 257.61 0.165039 258.147 0.165039 258.81C0.165039 259.473 0.70231 260.01 1.36505 260.01Z" fill="white"/>
<path d="M15.1453 260.01C15.8081 260.01 16.3453 259.473 16.3453 258.81C16.3453 258.147 15.8081 257.61 15.1453 257.61C14.4826 257.61 13.9453 258.147 13.9453 258.81C13.9453 259.473 14.4826 260.01 15.1453 260.01Z" fill="white"/>
<path d="M30.1251 258.81C30.1251 259.47 29.5851 260.01 28.9251 260.01C28.2651 260.01 27.7251 259.47 27.7251 258.81C27.7251 258.15 28.2651 257.61 28.9251 257.61C29.5851 257.61 30.1251 258.14 30.1251 258.81Z" fill="white"/>
<path d="M42.7049 260.01C43.3676 260.01 43.9049 259.473 43.9049 258.81C43.9049 258.147 43.3676 257.61 42.7049 257.61C42.0422 257.61 41.5049 258.147 41.5049 258.81C41.5049 259.473 42.0422 260.01 42.7049 260.01Z" fill="white"/>
<path d="M56.4852 260.01C57.1479 260.01 57.6852 259.473 57.6852 258.81C57.6852 258.147 57.1479 257.61 56.4852 257.61C55.8224 257.61 55.2852 258.147 55.2852 258.81C55.2852 259.473 55.8224 260.01 56.4852 260.01Z" fill="white"/>
<path d="M70.265 260.01C70.9277 260.01 71.465 259.473 71.465 258.81C71.465 258.147 70.9277 257.61 70.265 257.61C69.6022 257.61 69.0649 258.147 69.0649 258.81C69.0649 259.473 69.6022 260.01 70.265 260.01Z" fill="white"/>
<path d="M84.055 260.01C84.7177 260.01 85.2549 259.473 85.2549 258.81C85.2549 258.147 84.7177 257.61 84.055 257.61C83.3923 257.61 82.855 258.147 82.855 258.81C82.855 259.473 83.3923 260.01 84.055 260.01Z" fill="white"/>
<path d="M97.8353 260.01C98.498 260.01 99.0353 259.473 99.0353 258.81C99.0353 258.147 98.498 257.61 97.8353 257.61C97.1725 257.61 96.6353 258.147 96.6353 258.81C96.6353 259.473 97.1725 260.01 97.8353 260.01Z" fill="white"/>
<path d="M111.615 260.01C112.278 260.01 112.815 259.473 112.815 258.81C112.815 258.147 112.278 257.61 111.615 257.61C110.952 257.61 110.415 258.147 110.415 258.81C110.415 259.473 110.952 260.01 111.615 260.01Z" fill="white"/>
<path d="M126.595 258.81C126.595 259.47 126.055 260.01 125.395 260.01C124.735 260.01 124.195 259.47 124.195 258.81C124.195 258.15 124.735 257.61 125.395 257.61C126.055 257.61 126.595 258.14 126.595 258.81Z" fill="white"/>
<path d="M139.175 260.01C139.838 260.01 140.375 259.473 140.375 258.81C140.375 258.147 139.838 257.61 139.175 257.61C138.512 257.61 137.975 258.147 137.975 258.81C137.975 259.473 138.512 260.01 139.175 260.01Z" fill="white"/>
<path d="M152.955 260.01C153.618 260.01 154.155 259.473 154.155 258.81C154.155 258.147 153.618 257.61 152.955 257.61C152.292 257.61 151.755 258.147 151.755 258.81C151.755 259.473 152.292 260.01 152.955 260.01Z" fill="white"/>
<path d="M166.745 260.01C167.408 260.01 167.945 259.473 167.945 258.81C167.945 258.147 167.408 257.61 166.745 257.61C166.082 257.61 165.545 258.147 165.545 258.81C165.545 259.473 166.082 260.01 166.745 260.01Z" fill="white"/>
<path d="M180.525 260.01C181.188 260.01 181.725 259.473 181.725 258.81C181.725 258.147 181.188 257.61 180.525 257.61C179.862 257.61 179.325 258.147 179.325 258.81C179.325 259.473 179.862 260.01 180.525 260.01Z" fill="white"/>
<path d="M194.305 260.01C194.968 260.01 195.505 259.473 195.505 258.81C195.505 258.147 194.968 257.61 194.305 257.61C193.642 257.61 193.105 258.147 193.105 258.81C193.105 259.473 193.642 260.01 194.305 260.01Z" fill="white"/>
<path d="M208.085 260.01C208.748 260.01 209.285 259.473 209.285 258.81C209.285 258.147 208.748 257.61 208.085 257.61C207.423 257.61 206.885 258.147 206.885 258.81C206.885 259.473 207.423 260.01 208.085 260.01Z" fill="white"/>
<path d="M221.865 260.01C222.528 260.01 223.065 259.473 223.065 258.81C223.065 258.147 222.528 257.61 221.865 257.61C221.202 257.61 220.665 258.147 220.665 258.81C220.665 259.473 221.202 260.01 221.865 260.01Z" fill="white"/>
<path d="M235.645 260.01C236.308 260.01 236.845 259.473 236.845 258.81C236.845 258.147 236.308 257.61 235.645 257.61C234.983 257.61 234.445 258.147 234.445 258.81C234.445 259.473 234.983 260.01 235.645 260.01Z" fill="white"/>
<path d="M250.625 258.81C250.625 259.47 250.085 260.01 249.425 260.01C248.765 260.01 248.225 259.47 248.225 258.81C248.225 258.15 248.765 257.61 249.425 257.61C250.095 257.61 250.625 258.14 250.625 258.81Z" fill="white"/>
<path d="M263.215 260.01C263.878 260.01 264.415 259.473 264.415 258.81C264.415 258.147 263.878 257.61 263.215 257.61C262.552 257.61 262.015 258.147 262.015 258.81C262.015 259.473 262.552 260.01 263.215 260.01Z" fill="white"/>
<path d="M276.995 260.01C277.658 260.01 278.195 259.473 278.195 258.81C278.195 258.147 277.658 257.61 276.995 257.61C276.332 257.61 275.795 258.147 275.795 258.81C275.795 259.473 276.332 260.01 276.995 260.01Z" fill="white"/>
</svg>