<svg width="20" height="20" viewBox="0 0 20 20" fill="none" xmlns="http://www.w3.org/2000/svg">
<path d="M11.17 11H5V9H11.17L8.59 6.41L10 5L15 10L10 15L8.59 13.59L11.17 11Z" fill="#2E3A59"/>
<path fill-rule="evenodd" clip-rule="evenodd" d="M0 10C4.82823e-07 4.47715 4.47715 -4.82823e-07 10 0C15.5228 4.82823e-07 20 4.47715 20 10C20 15.5228 15.5228 20 10 20C4.47715 20 -4.82823e-07 15.5228 0 10ZM2 10C2 5.58172 5.58172 2 10 2C14.4183 2 18 5.58172 18 10C18 14.4183 14.4183 18 10 18C5.58172 18 2 14.4183 2 10Z" fill="#2E3A59"/>
</svg>
