<svg width="103" height="103" viewBox="0 0 103 103" fill="none" xmlns="http://www.w3.org/2000/svg">
<circle cx="51.5" cy="51.5" r="51.5" fill="#212121"/>
<path d="M25.952 27.6H37.904C41.984 27.6 44.96 28.56 46.832 30.48C48.704 32.352 49.64 35.256 49.64 39.192V41.208C49.64 43.8 49.208 45.912 48.344 47.544C47.528 49.176 46.256 50.352 44.528 51.072V51.216C48.464 52.56 50.432 56.064 50.432 61.728V66.048C50.432 69.936 49.4 72.912 47.336 74.976C45.32 76.992 42.344 78 38.408 78H25.952V27.6ZM36.968 48.12C38.552 48.12 39.728 47.712 40.496 46.896C41.312 46.08 41.72 44.712 41.72 42.792V39.984C41.72 38.16 41.384 36.84 40.712 36.024C40.088 35.208 39.08 34.8 37.688 34.8H33.872V48.12H36.968ZM38.408 70.8C39.8 70.8 40.832 70.44 41.504 69.72C42.176 68.952 42.512 67.656 42.512 65.832V61.44C42.512 59.136 42.104 57.552 41.288 56.688C40.52 55.776 39.224 55.32 37.4 55.32H33.872V70.8H38.408ZM66.2934 78.72C62.4534 78.72 59.5254 77.64 57.5094 75.48C55.4934 73.272 54.4854 70.128 54.4854 66.048V39.552C54.4854 35.472 55.4934 32.352 57.5094 30.192C59.5254 27.984 62.4534 26.88 66.2934 26.88C70.1334 26.88 73.0614 27.984 75.0774 30.192C77.0934 32.352 78.1014 35.472 78.1014 39.552V43.872H70.6134V39.048C70.6134 35.736 69.2454 34.08 66.5094 34.08C63.7734 34.08 62.4054 35.736 62.4054 39.048V66.624C62.4054 69.888 63.7734 71.52 66.5094 71.52C69.2454 71.52 70.6134 69.888 70.6134 66.624V56.76H66.6534V49.56H78.1014V66.048C78.1014 70.128 77.0934 73.272 75.0774 75.48C73.0614 77.64 70.1334 78.72 66.2934 78.72Z" fill="white"/>
</svg>