<svg width="164" height="164" viewBox="0 0 164 164" fill="none" xmlns="http://www.w3.org/2000/svg">
<g opacity="0.89">
<g opacity="0.89">
<path opacity="0.89" d="M81.7899 162.61C126.47 162.61 162.69 126.39 162.69 81.71C162.69 37.0302 126.47 0.809998 81.7899 0.809998C37.1101 0.809998 0.889893 37.0302 0.889893 81.71C0.889893 126.39 37.1101 162.61 81.7899 162.61Z" stroke="white" stroke-opacity="0.5" stroke-width="0.8127" stroke-linecap="round" stroke-linejoin="round"/>
</g>
<g opacity="0.89">
<path opacity="0.89" d="M81.7898 156.71C123.211 156.71 156.79 123.131 156.79 81.71C156.79 40.2886 123.211 6.70999 81.7898 6.70999C40.3684 6.70999 6.78979 40.2886 6.78979 81.71C6.78979 123.131 40.3684 156.71 81.7898 156.71Z" stroke="white" stroke-opacity="0.5" stroke-width="0.9493" stroke-linecap="round" stroke-linejoin="round"/>
</g>
<g opacity="0.89">
<path opacity="0.89" d="M81.7899 150.81C119.953 150.81 150.89 119.873 150.89 81.71C150.89 43.5471 119.953 12.61 81.7899 12.61C43.6271 12.61 12.6899 43.5471 12.6899 81.71C12.6899 119.873 43.6271 150.81 81.7899 150.81Z" stroke="white" stroke-opacity="0.5" stroke-width="1.0859" stroke-linecap="round" stroke-linejoin="round"/>
</g>
<g opacity="0.89">
<path opacity="0.89" d="M81.7899 144.91C116.694 144.91 144.99 116.614 144.99 81.71C144.99 46.8056 116.694 18.51 81.7899 18.51C46.8855 18.51 18.5898 46.8056 18.5898 81.71C18.5898 116.614 46.8855 144.91 81.7899 144.91Z" stroke="white" stroke-opacity="0.5" stroke-width="1.2225" stroke-linecap="round" stroke-linejoin="round"/>
</g>
<g opacity="0.89">
<path opacity="0.89" d="M81.7898 139.01C113.436 139.01 139.09 113.356 139.09 81.71C139.09 50.0641 113.436 24.41 81.7898 24.41C50.1438 24.41 24.4897 50.0641 24.4897 81.71C24.4897 113.356 50.1438 139.01 81.7898 139.01Z" stroke="white" stroke-opacity="0.5" stroke-width="1.3591" stroke-linecap="round" stroke-linejoin="round"/>
</g>
<g opacity="0.89">
<path opacity="0.89" d="M81.7899 133.11C110.177 133.11 133.19 110.097 133.19 81.71C133.19 53.3226 110.177 30.31 81.7899 30.31C53.4025 30.31 30.3899 53.3226 30.3899 81.71C30.3899 110.097 53.4025 133.11 81.7899 133.11Z" stroke="white" stroke-opacity="0.5" stroke-width="1.4956" stroke-linecap="round" stroke-linejoin="round"/>
</g>
<g opacity="0.89">
<path opacity="0.89" d="M81.7898 127.21C106.919 127.21 127.29 106.839 127.29 81.71C127.29 56.581 106.919 36.21 81.7898 36.21C56.6608 36.21 36.2898 56.581 36.2898 81.71C36.2898 106.839 56.6608 127.21 81.7898 127.21Z" stroke="white" stroke-opacity="0.5" stroke-width="1.6322" stroke-linecap="round" stroke-linejoin="round"/>
</g>
<g opacity="0.89">
<path opacity="0.89" d="M81.7899 121.31C103.66 121.31 121.39 103.58 121.39 81.71C121.39 59.8395 103.66 42.11 81.7899 42.11C59.9195 42.11 42.1899 59.8395 42.1899 81.71C42.1899 103.58 59.9195 121.31 81.7899 121.31Z" stroke="white" stroke-opacity="0.5" stroke-width="1.7688" stroke-linecap="round" stroke-linejoin="round"/>
</g>
<g opacity="0.89">
<path opacity="0.89" d="M81.7899 115.42C100.407 115.42 115.5 100.328 115.5 81.71C115.5 63.0925 100.407 48 81.7899 48C63.1723 48 48.0798 63.0925 48.0798 81.71C48.0798 100.328 63.1723 115.42 81.7899 115.42Z" stroke="white" stroke-opacity="0.5" stroke-width="1.9054" stroke-linecap="round" stroke-linejoin="round"/>
</g>
<g opacity="0.89">
<path opacity="0.89" d="M81.79 109.52C97.149 109.52 109.6 97.069 109.6 81.71C109.6 66.351 97.149 53.9 81.79 53.9C66.4309 53.9 53.98 66.351 53.98 81.71C53.98 97.069 66.4309 109.52 81.79 109.52Z" stroke="white" stroke-opacity="0.5" stroke-width="2.042" stroke-linecap="round" stroke-linejoin="round"/>
</g>
<g opacity="0.89">
<path opacity="0.89" d="M81.7899 103.62C93.8904 103.62 103.7 93.8106 103.7 81.71C103.7 69.6094 93.8904 59.8 81.7899 59.8C69.6893 59.8 59.8799 69.6094 59.8799 81.71C59.8799 93.8106 69.6893 103.62 81.7899 103.62Z" stroke="white" stroke-opacity="0.5" stroke-width="2.1786" stroke-linecap="round" stroke-linejoin="round"/>
</g>
<g opacity="0.89">
<path opacity="0.89" d="M81.7898 97.72C90.6319 97.72 97.7998 90.5521 97.7998 81.71C97.7998 72.8679 90.6319 65.7 81.7898 65.7C72.9477 65.7 65.7798 72.8679 65.7798 81.71C65.7798 90.5521 72.9477 97.72 81.7898 97.72Z" stroke="white" stroke-opacity="0.5" stroke-width="2.3152" stroke-linecap="round" stroke-linejoin="round"/>
</g>
</g>
</svg>