<svg width="107" height="101" viewBox="0 0 107 101" fill="none" xmlns="http://www.w3.org/2000/svg">
<path d="M55.48 5.39003C54.33 6.54003 52.47 6.54003 51.32 5.39003C50.17 4.24003 50.17 2.38002 51.32 1.23002C52.47 0.0800232 54.33 0.0800232 55.48 1.23002C56.62 2.37002 56.62 4.24003 55.48 5.39003ZM67.92 13.66C66.77 12.51 64.91 12.51 63.76 13.66C62.61 14.81 62.61 16.67 63.76 17.82C64.91 18.97 66.77 18.97 67.92 17.82C69.06 16.68 69.06 14.81 67.92 13.66ZM80.35 26.1C79.2 24.95 77.34 24.95 76.19 26.1C75.04 27.25 75.04 29.11 76.19 30.26C77.34 31.41 79.2 31.41 80.35 30.26C81.5 29.11 81.5 27.25 80.35 26.1ZM92.79 38.54C91.64 37.39 89.78 37.39 88.63 38.54C87.48 39.69 87.48 41.55 88.63 42.7C89.78 43.85 91.64 43.85 92.79 42.7C93.94 41.55 93.94 39.69 92.79 38.54ZM105.23 50.98C104.08 49.83 102.22 49.83 101.07 50.98C99.92 52.13 99.92 53.99 101.07 55.14C102.22 56.29 104.08 56.29 105.23 55.14C106.38 53.99 106.38 52.13 105.23 50.98ZM43.04 13.66C41.89 12.51 40.03 12.51 38.88 13.66C37.73 14.81 37.73 16.67 38.88 17.82C40.03 18.97 41.89 18.97 43.04 17.82C44.19 16.68 44.19 14.81 43.04 13.66ZM55.48 26.1C54.33 24.95 52.47 24.95 51.32 26.1C50.17 27.25 50.17 29.11 51.32 30.26C52.47 31.41 54.33 31.41 55.48 30.26C56.62 29.11 56.62 27.25 55.48 26.1ZM67.92 38.54C66.77 37.39 64.91 37.39 63.76 38.54C62.61 39.69 62.61 41.55 63.76 42.7C64.91 43.85 66.77 43.85 67.92 42.7C69.06 41.55 69.06 39.69 67.92 38.54ZM80.35 50.98C79.2 49.83 77.34 49.83 76.19 50.98C75.04 52.13 75.04 53.99 76.19 55.14C77.34 56.29 79.2 56.29 80.35 55.14C81.5 53.99 81.5 52.13 80.35 50.98ZM92.79 63.42C91.64 62.27 89.78 62.27 88.63 63.42C87.48 64.57 87.48 66.43 88.63 67.58C89.78 68.73 91.64 68.73 92.79 67.58C93.94 66.43 93.94 64.57 92.79 63.42ZM30.6 26.1C29.45 24.95 27.59 24.95 26.44 26.1C25.29 27.25 25.29 29.11 26.44 30.26C27.59 31.41 29.45 31.41 30.6 30.26C31.75 29.11 31.75 27.25 30.6 26.1ZM43.04 38.54C41.89 37.39 40.03 37.39 38.88 38.54C37.73 39.69 37.73 41.55 38.88 42.7C40.03 43.85 41.89 43.85 43.04 42.7C44.19 41.55 44.19 39.69 43.04 38.54ZM55.48 50.98C54.33 49.83 52.47 49.83 51.32 50.98C50.17 52.13 50.17 53.99 51.32 55.14C52.47 56.29 54.33 56.29 55.48 55.14C56.62 53.99 56.62 52.13 55.48 50.98ZM67.92 63.42C66.77 62.27 64.91 62.27 63.76 63.42C62.61 64.57 62.61 66.43 63.76 67.58C64.91 68.73 66.77 68.73 67.92 67.58C69.06 66.43 69.06 64.57 67.92 63.42ZM80.35 75.86C79.2 74.71 77.34 74.71 76.19 75.86C75.04 77.01 75.04 78.87 76.19 80.02C77.34 81.17 79.2 81.17 80.35 80.02C81.5 78.87 81.5 77.01 80.35 75.86ZM18.16 38.54C17.01 37.39 15.15 37.39 14 38.54C12.85 39.69 12.85 41.55 14 42.7C15.15 43.85 17.01 43.85 18.16 42.7C19.31 41.55 19.31 39.69 18.16 38.54ZM30.6 50.98C29.45 49.83 27.59 49.83 26.44 50.98C25.29 52.13 25.29 53.99 26.44 55.14C27.59 56.29 29.45 56.29 30.6 55.14C31.75 53.99 31.75 52.13 30.6 50.98ZM43.04 63.42C41.89 62.27 40.03 62.27 38.88 63.42C37.73 64.57 37.73 66.43 38.88 67.58C40.03 68.73 41.89 68.73 43.04 67.58C44.19 66.43 44.19 64.57 43.04 63.42ZM55.48 75.86C54.33 74.71 52.47 74.71 51.32 75.86C50.17 77.01 50.17 78.87 51.32 80.02C52.47 81.17 54.33 81.17 55.48 80.02C56.62 78.87 56.62 77.01 55.48 75.86ZM67.92 88.3C66.77 87.15 64.91 87.15 63.76 88.3C62.61 89.45 62.61 91.31 63.76 92.46C64.91 93.61 66.77 93.61 67.92 92.46C69.06 91.31 69.06 89.45 67.92 88.3ZM5.72001 50.98C4.57001 49.83 2.71001 49.83 1.56001 50.98C0.41001 52.13 0.41001 53.99 1.56001 55.14C2.71001 56.29 4.57001 56.29 5.72001 55.14C6.87001 53.99 6.87001 52.13 5.72001 50.98ZM18.16 63.42C17.01 62.27 15.15 62.27 14 63.42C12.85 64.57 12.85 66.43 14 67.58C15.15 68.73 17.01 68.73 18.16 67.58C19.31 66.43 19.31 64.57 18.16 63.42ZM30.6 75.86C29.45 74.71 27.59 74.71 26.44 75.86C25.29 77.01 25.29 78.87 26.44 80.02C27.59 81.17 29.45 81.17 30.6 80.02C31.75 78.87 31.75 77.01 30.6 75.86ZM43.04 88.3C41.89 87.15 40.03 87.15 38.88 88.3C37.73 89.45 37.73 91.31 38.88 92.46C40.03 93.61 41.89 93.61 43.04 92.46C44.19 91.31 44.19 89.45 43.04 88.3ZM55.48 100.74C54.33 99.59 52.47 99.59 51.32 100.74C50.17 101.89 50.17 103.75 51.32 104.9C52.47 106.05 54.33 106.05 55.48 104.9C56.63 103.75 56.62 101.89 55.48 100.74Z" fill="currentColor" fill-opacity="0.2"/>
</svg>