<svg width="76" height="80" viewBox="0 0 76 80" fill="none" xmlns="http://www.w3.org/2000/svg">
<path d="M29.5201 11.9L25.0701 7.45L29.5201 3C30.0801 2.44 30.0801 1.52001 29.5201 0.960009C28.9601 0.400009 28.0401 0.400009 27.4801 0.960009L23.0301 5.41001L18.5801 0.960009C18.0201 0.400009 17.1001 0.400009 16.5401 0.960009C15.9801 1.52001 15.9801 2.44 16.5401 3L20.9901 7.45L16.5401 11.9C15.9801 12.46 15.9801 13.38 16.5401 13.94C17.1001 14.5 18.0201 14.5 18.5801 13.94L23.0301 9.49001L27.4801 13.94C28.0401 14.5 28.9601 14.5 29.5201 13.94C30.0801 13.38 30.0801 12.46 29.5201 11.9Z" fill="white" fill-opacity="0.2"/>
<path d="M65.68 77.5L61.23 73.05L65.68 68.6C66.24 68.04 66.24 67.12 65.68 66.56C65.12 66 64.2 66 63.64 66.56L59.19 71.01L54.74 66.56C54.18 66 53.26 66 52.7 66.56C52.14 67.12 52.14 68.04 52.7 68.6L57.15 73.05L52.7 77.5C52.14 78.06 52.14 78.98 52.7 79.54C53.26 80.1 54.18 80.1 54.74 79.54L59.19 75.09L63.64 79.54C64.2 80.1 65.12 80.1 65.68 79.54C66.24 78.98 66.24 78.07 65.68 77.5Z" fill="white" fill-opacity="0.2"/>
<path d="M11.6799 47.67C11.6799 50.64 9.27994 53.04 6.30994 53.04C3.33994 53.04 0.939941 50.64 0.939941 47.67C0.939941 44.7 3.33994 42.3 6.30994 42.3C9.27994 42.3 11.6799 44.7 11.6799 47.67Z" fill="white" fill-opacity="0.2"/>
<path d="M75.8699 23.83C75.8699 26.8 73.4699 29.2 70.4999 29.2C67.5299 29.2 65.1299 26.8 65.1299 23.83C65.1299 20.86 67.5299 18.46 70.4999 18.46C73.4599 18.46 75.8699 20.86 75.8699 23.83Z" fill="white" fill-opacity="0.2"/>
</svg>