<svg xmlns="http://www.w3.org/2000/svg" width="76.25" height="162.25" viewBox="0 0 76.25 162.25">
  <g id="Groupe_13" data-name="Groupe 13" transform="translate(-312 -646)">
    <path id="square-dots" d="M73.5,6.52a2.94,2.94,0,1,1,2.94-2.94A2.945,2.945,0,0,1,73.5,6.52Zm2.94,14.65a2.94,2.94,0,1,0-2.94,2.94A2.945,2.945,0,0,0,76.44,21.17Zm0,17.59A2.94,2.94,0,1,0,73.5,41.7,2.945,2.945,0,0,0,76.44,38.76Zm0,17.6A2.94,2.94,0,1,0,73.5,59.3,2.945,2.945,0,0,0,76.44,56.36Zm0,17.59a2.94,2.94,0,1,0-2.94,2.94A2.945,2.945,0,0,0,76.44,73.95ZM58.85,3.58a2.94,2.94,0,1,0-2.94,2.94A2.945,2.945,0,0,0,58.85,3.58Zm0,17.59a2.94,2.94,0,1,0-2.94,2.94A2.945,2.945,0,0,0,58.85,21.17Zm0,17.59a2.94,2.94,0,1,0-2.94,2.94A2.945,2.945,0,0,0,58.85,38.76Zm0,17.6a2.94,2.94,0,1,0-2.94,2.94A2.945,2.945,0,0,0,58.85,56.36Zm0,17.59a2.94,2.94,0,1,0-2.94,2.94A2.945,2.945,0,0,0,58.85,73.95ZM41.25,3.58a2.94,2.94,0,1,0-2.94,2.94A2.945,2.945,0,0,0,41.25,3.58Zm0,17.59a2.94,2.94,0,1,0-2.94,2.94A2.945,2.945,0,0,0,41.25,21.17Zm0,17.59a2.94,2.94,0,1,0-2.94,2.94A2.945,2.945,0,0,0,41.25,38.76Zm0,17.6a2.94,2.94,0,1,0-2.94,2.94A2.945,2.945,0,0,0,41.25,56.36Zm0,17.59a2.94,2.94,0,1,0-2.94,2.94A2.945,2.945,0,0,0,41.25,73.95ZM23.66,3.58a2.94,2.94,0,1,0-2.94,2.94A2.945,2.945,0,0,0,23.66,3.58Zm0,17.59a2.94,2.94,0,1,0-2.94,2.94A2.945,2.945,0,0,0,23.66,21.17Zm0,17.59a2.94,2.94,0,1,0-2.94,2.94A2.945,2.945,0,0,0,23.66,38.76Zm0,17.6a2.94,2.94,0,1,0-2.94,2.94A2.945,2.945,0,0,0,23.66,56.36Zm0,17.59a2.94,2.94,0,1,0-2.94,2.94A2.945,2.945,0,0,0,23.66,73.95ZM6.07,3.58A2.94,2.94,0,1,0,3.13,6.52,2.945,2.945,0,0,0,6.07,3.58Zm0,17.59a2.94,2.94,0,1,0-2.94,2.94A2.945,2.945,0,0,0,6.07,21.17Zm0,17.59A2.94,2.94,0,1,0,3.13,41.7,2.945,2.945,0,0,0,6.07,38.76Zm0,17.6A2.94,2.94,0,1,0,3.13,59.3,2.945,2.945,0,0,0,6.07,56.36Zm0,17.59a2.94,2.94,0,1,0-2.94,2.94A2.945,2.945,0,0,0,6.07,73.95Z" transform="translate(311.81 645.36)" fill="#e4e3df"/>
    <path id="square-dots-2" data-name="square-dots" d="M73.5,6.52a2.94,2.94,0,1,1,2.94-2.94A2.945,2.945,0,0,1,73.5,6.52Zm2.94,14.65a2.94,2.94,0,1,0-2.94,2.94A2.945,2.945,0,0,0,76.44,21.17Zm0,17.59A2.94,2.94,0,1,0,73.5,41.7,2.945,2.945,0,0,0,76.44,38.76Zm0,17.6A2.94,2.94,0,1,0,73.5,59.3,2.945,2.945,0,0,0,76.44,56.36Zm0,17.59a2.94,2.94,0,1,0-2.94,2.94A2.945,2.945,0,0,0,76.44,73.95ZM58.85,3.58a2.94,2.94,0,1,0-2.94,2.94A2.945,2.945,0,0,0,58.85,3.58Zm0,17.59a2.94,2.94,0,1,0-2.94,2.94A2.945,2.945,0,0,0,58.85,21.17Zm0,17.59a2.94,2.94,0,1,0-2.94,2.94A2.945,2.945,0,0,0,58.85,38.76Zm0,17.6a2.94,2.94,0,1,0-2.94,2.94A2.945,2.945,0,0,0,58.85,56.36Zm0,17.59a2.94,2.94,0,1,0-2.94,2.94A2.945,2.945,0,0,0,58.85,73.95ZM41.25,3.58a2.94,2.94,0,1,0-2.94,2.94A2.945,2.945,0,0,0,41.25,3.58Zm0,17.59a2.94,2.94,0,1,0-2.94,2.94A2.945,2.945,0,0,0,41.25,21.17Zm0,17.59a2.94,2.94,0,1,0-2.94,2.94A2.945,2.945,0,0,0,41.25,38.76Zm0,17.6a2.94,2.94,0,1,0-2.94,2.94A2.945,2.945,0,0,0,41.25,56.36Zm0,17.59a2.94,2.94,0,1,0-2.94,2.94A2.945,2.945,0,0,0,41.25,73.95ZM23.66,3.58a2.94,2.94,0,1,0-2.94,2.94A2.945,2.945,0,0,0,23.66,3.58Zm0,17.59a2.94,2.94,0,1,0-2.94,2.94A2.945,2.945,0,0,0,23.66,21.17Zm0,17.59a2.94,2.94,0,1,0-2.94,2.94A2.945,2.945,0,0,0,23.66,38.76Zm0,17.6a2.94,2.94,0,1,0-2.94,2.94A2.945,2.945,0,0,0,23.66,56.36Zm0,17.59a2.94,2.94,0,1,0-2.94,2.94A2.945,2.945,0,0,0,23.66,73.95ZM6.07,3.58A2.94,2.94,0,1,0,3.13,6.52,2.945,2.945,0,0,0,6.07,3.58Zm0,17.59a2.94,2.94,0,1,0-2.94,2.94A2.945,2.945,0,0,0,6.07,21.17Zm0,17.59A2.94,2.94,0,1,0,3.13,41.7,2.945,2.945,0,0,0,6.07,38.76Zm0,17.6A2.94,2.94,0,1,0,3.13,59.3,2.945,2.945,0,0,0,6.07,56.36Zm0,17.59a2.94,2.94,0,1,0-2.94,2.94A2.945,2.945,0,0,0,6.07,73.95Z" transform="translate(311.81 731.36)" fill="#e4e3df"/>
  </g>
</svg>
